<svg id="print" xmlns="http://www.w3.org/2000/svg" viewBox="0 0 139 24"><title>license</title><path d="M16.3545,15.0449h-3.709L11.83,17.8008H9.8086l3.8555-11.87h1.7207l3.7822,11.87H17.1533ZM13.1426,13.374h2.7226L14.5205,8.7188Z"/><path d="M24.5967,13.17H22.6084v4.6309h-1.957V5.9307h3.75a6.2264,6.2264,0,0,1,1.6836.2324,3.8569,3.8569,0,0,1,1.333.6689,2.9992,2.9992,0,0,1,.872,1.1123A3.6849,3.6849,0,0,1,28.6,9.51a3.5784,3.5784,0,0,1-.1582,1.0966,3.2624,3.2624,0,0,1-.4443.8926,3.22,3.22,0,0,1-.6856.7012,4.3888,4.3888,0,0,1-.88.5137l2.5108,4.9892v.0977H26.8555Zm-1.9883-1.581h1.8008a2.7664,2.7664,0,0,0,.8974-.1387,2.1137,2.1137,0,0,0,.7051-.3955,1.755,1.755,0,0,0,.461-.6279,2.1029,2.1029,0,0,0,.1621-.8516,2.333,2.333,0,0,0-.1543-.8809,1.7325,1.7325,0,0,0-.4444-.6435,1.9245,1.9245,0,0,0-.705-.3955,3.1522,3.1522,0,0,0-.93-.1426h-1.793Z"/><path d="M39.043,7.5449H35.3984V17.8008H33.45V7.5449H29.8311V5.9307H39.043Z"/><path d="M40.918,5.9307h7.06v1.622H45.41v8.6338h2.5683v1.6143h-7.06V16.1865h2.5107V7.5527H40.918Z"/><path d="M56.84,14.7432a1.5306,1.5306,0,0,0-.1757-.7452,1.7714,1.7714,0,0,0-.4971-.5673,3.3985,3.3985,0,0,0-.7666-.4278,10.1293,10.1293,0,0,0-.9658-.3379,10.9129,10.9129,0,0,1-1.3819-.5058,5.3384,5.3384,0,0,1-1.2148-.7373,3.6185,3.6185,0,0,1-.8643-1.02,2.6924,2.6924,0,0,1-.33-1.3486,2.8337,2.8337,0,0,1,.33-1.374,3.23,3.23,0,0,1,.8848-1.0313,4.1124,4.1124,0,0,1,1.2881-.6523A5.1267,5.1267,0,0,1,54.68,5.7676a4.7465,4.7465,0,0,1,1.6016.2656,4.1035,4.1035,0,0,1,1.3046.7412A3.5242,3.5242,0,0,1,58.47,7.916a3.377,3.377,0,0,1,.335,1.4717h-1.957a2.857,2.857,0,0,0-.1914-.8193,1.8961,1.8961,0,0,0-.4239-.6407,1.8717,1.8717,0,0,0-.665-.415,2.57,2.57,0,0,0-.9043-.1475,2.7832,2.7832,0,0,0-.8154.1143,1.9,1.9,0,0,0-.6485.335,1.5892,1.5892,0,0,0-.4277.5293,1.5453,1.5453,0,0,0-.1553.7011,1.2338,1.2338,0,0,0,.2129.7217,2.0256,2.0256,0,0,0,.5537.5342,3.8482,3.8482,0,0,0,.7871.3955q.4439.1669.9248.3057a9.6807,9.6807,0,0,1,1.419.5419,5.1191,5.1191,0,0,1,1.19.7745,3.4905,3.4905,0,0,1,.8145,1.0478,2.9694,2.9694,0,0,1,.3017,1.3613,2.8259,2.8259,0,0,1-.334,1.3936,3.0665,3.0665,0,0,1-.8965,1.0107,4.0652,4.0652,0,0,1-1.3046.6162,5.707,5.707,0,0,1-1.5489.2081,5.62,5.62,0,0,1-1.084-.1065,5.089,5.089,0,0,1-1.0312-.3174,4.6108,4.6108,0,0,1-.918-.5263,3.66,3.66,0,0,1-.7373-.7256,3.3232,3.3232,0,0,1-.4931-.9209,3.4677,3.4677,0,0,1-.1875-1.1211H52.25a2.5543,2.5543,0,0,0,.2363.9375,1.9317,1.9317,0,0,0,.5215.664,2.23,2.23,0,0,0,.7627.3995,3.2575,3.2575,0,0,0,.9658.1347,3.0969,3.0969,0,0,0,.8233-.1054,2.065,2.065,0,0,0,.6689-.3145,1.5186,1.5186,0,0,0,.4483-.5137A1.458,1.458,0,0,0,56.84,14.7432Z"/><path d="M69.1006,7.5449H65.457V17.8008H63.5088V7.5449h-3.62V5.9307h9.2119Z"/><path d="M70.9756,5.9307h7.0605v1.622H75.4678v8.6338h2.5683v1.6143H70.9756V16.1865h2.5107V7.5527H70.9756Z"/><path d="M88.748,14.1563a4.7639,4.7639,0,0,1-.4072,1.5615,3.8353,3.8353,0,0,1-.8642,1.207,3.7908,3.7908,0,0,1-1.2676.7744,4.6178,4.6178,0,0,1-1.627.2725,4.038,4.038,0,0,1-1.8906-.42,3.9161,3.9161,0,0,1-1.3457-1.1368,5.0151,5.0151,0,0,1-.8066-1.68,7.7823,7.7823,0,0,1-.2774-2.0547V11.0586a7.59,7.59,0,0,1,.2852-2.05,5.1243,5.1243,0,0,1,.8193-1.6875,3.94,3.94,0,0,1,1.35-1.1416,4.0022,4.0022,0,0,1,1.875-.42,4.7083,4.7083,0,0,1,1.6709.2773,3.6207,3.6207,0,0,1,1.2559.7822,3.7176,3.7176,0,0,1,.831,1.2315A5.4632,5.4632,0,0,1,88.748,9.665H86.792a3.9975,3.9975,0,0,0-.2-.95,2.2851,2.2851,0,0,0-.4111-.7334,1.7049,1.7049,0,0,0-.6563-.4687,2.4283,2.4283,0,0,0-.9336-.1631,1.943,1.943,0,0,0-1.1094.3018,2.2692,2.2692,0,0,0-.7255.8105,3.8432,3.8432,0,0,0-.3946,1.1787,8.0105,8.0105,0,0,0-.1181,1.4014v1.6387a8.2829,8.2829,0,0,0,.1181,1.4394,3.9253,3.9253,0,0,0,.3867,1.1778,2.1318,2.1318,0,0,0,.7178.7988,1.9912,1.9912,0,0,0,1.1162.2939,2.0235,2.0235,0,0,0,1.5655-.583,2.7207,2.7207,0,0,0,.6357-1.6513Z"/><path d="M98.0986,13.3818h-6.53V11.8086h6.53Z"/><path d="M108.3867,17.8008h-7.9726V16.4561l3.8642-4.2149q.4878-.5463.8194-.9668a5.8971,5.8971,0,0,0,.5253-.7705,2.9057,2.9057,0,0,0,.2774-.6514,2.3209,2.3209,0,0,0,.082-.6113,2.1949,2.1949,0,0,0-.1269-.7549,1.7346,1.7346,0,0,0-.3575-.5947,1.6418,1.6418,0,0,0-.5625-.3877,1.9048,1.9048,0,0,0-.7382-.1387,1.9579,1.9579,0,0,0-1.5616.5791,2.3627,2.3627,0,0,0-.5009,1.5977h-1.9571a3.8333,3.8333,0,0,1,.2813-1.4629,3.52,3.52,0,0,1,.8076-1.2021,3.8048,3.8048,0,0,1,1.2754-.8116,4.95,4.95,0,0,1,3.2529-.0449,3.3168,3.3168,0,0,1,1.1582.7051,3,3,0,0,1,.7168,1.0723,3.6964,3.6964,0,0,1,.2442,1.3613,3.2654,3.2654,0,0,1-.18,1.0722,5.2406,5.2406,0,0,1-.4961,1.0313,8.704,8.704,0,0,1-.7578,1.0312q-.4425.5172-.9551,1.0635l-2.69,2.8867h5.5508Z"/><path d="M113.2783,16.6348a1.5353,1.5353,0,0,1,.0938-.5381,1.2182,1.2182,0,0,1,.2734-.4356,1.2679,1.2679,0,0,1,.4443-.29,1.8015,1.8015,0,0,1,1.2149,0,1.3306,1.3306,0,0,1,.4482.29,1.1981,1.1981,0,0,1,.2764.4356,1.5358,1.5358,0,0,1,.0947.5381,1.4369,1.4369,0,0,1-.0947.5263,1.1875,1.1875,0,0,1-.2764.42,1.3267,1.3267,0,0,1-.4482.2812,1.8667,1.8667,0,0,1-1.2149,0,1.264,1.264,0,0,1-.4443-.2812,1.2074,1.2074,0,0,1-.2734-.42A1.4367,1.4367,0,0,1,113.2783,16.6348Z"/><path d="M128.4824,13.2842a7.0182,7.0182,0,0,1-.2646,2.0263,4.0877,4.0877,0,0,1-.7617,1.4668,3.1655,3.1655,0,0,1-1.2149.8926,4.4471,4.4471,0,0,1-3.2207,0,3.1851,3.1851,0,0,1-1.2187-.8926,4.1352,4.1352,0,0,1-.7745-1.4668,6.8385,6.8385,0,0,1-.2734-2.0263V10.4473a6.9,6.9,0,0,1,.2695-2.0254,4.0969,4.0969,0,0,1,.77-1.4678,3.2066,3.2066,0,0,1,1.2149-.8926A4.073,4.073,0,0,1,124.61,5.76a4.13,4.13,0,0,1,1.6142.3017,3.1975,3.1975,0,0,1,1.2188.8926,4.0969,4.0969,0,0,1,.77,1.4678,6.8988,6.8988,0,0,1,.2685,2.0254Zm-5.7715-.7422L126.51,9.7139a3.1208,3.1208,0,0,0-.5342-1.7979,1.6485,1.6485,0,0,0-1.3652-.583,1.6247,1.6247,0,0,0-1.4268.6768,3.6617,3.6617,0,0,0-.4727,2.0791Zm3.8155-1.2959-3.7989,2.8291q.1465,2.332,1.8995,2.3311,1.8984,0,1.8994-2.7793Z"/><path d="M127,2H12a10,10,0,0,0,0,20H127a10,10,0,0,0,0-20Zm0,18H12A8,8,0,0,1,12,4H127a8,8,0,0,1,0,16Z"/></svg>