<svg id="print" xmlns="http://www.w3.org/2000/svg" viewBox="0 0 199 24"><title>license</title><path d="M10.5332,17.8008V5.9307h3.791a6.8408,6.8408,0,0,1,1.6016.1963,3.9216,3.9216,0,0,1,1.3047.5781,2.7682,2.7682,0,0,1,.8759.999,2.9933,2.9933,0,0,1,.31,1.4385,2.4247,2.4247,0,0,1-.4892,1.5049,3.1258,3.1258,0,0,1-1.2959.9658,3.0834,3.0834,0,0,1,.8847.3955,2.5165,2.5165,0,0,1,.6485.6152,2.7774,2.7774,0,0,1,.3994.7949,3.0545,3.0545,0,0,1,.1386.9249,3.3955,3.3955,0,0,1-.3105,1.4921,3.0018,3.0018,0,0,1-.8594,1.0762,3.8777,3.8777,0,0,1-1.3047.6563,5.8619,5.8619,0,0,1-1.6269.2324Zm1.9648-6.8721h1.875a3.161,3.161,0,0,0,.8194-.1182,1.9693,1.9693,0,0,0,.6562-.3261,1.6188,1.6188,0,0,0,.4405-.53,1.5441,1.5441,0,0,0,.1621-.7217,1.7372,1.7372,0,0,0-.1543-.7666,1.3824,1.3824,0,0,0-.4365-.5215,1.9048,1.9048,0,0,0-.6641-.2978,3.9136,3.9136,0,0,0-.84-.1016H12.498Zm0,1.4912v3.7832h2.1358a2.6949,2.6949,0,0,0,.8476-.1426,2.0564,2.0564,0,0,0,.66-.371,1.6928,1.6928,0,0,0,.4365-.5791,1.806,1.806,0,0,0,.1592-.7666,2.2031,2.2031,0,0,0-.1387-.8028,1.6168,1.6168,0,0,0-.3994-.5986,1.828,1.828,0,0,0-.6357-.38,2.6533,2.6533,0,0,0-.84-.1426Z"/><path d="M26.7236,14.7432a1.5415,1.5415,0,0,0-.1748-.7452,1.7955,1.7955,0,0,0-.497-.5673,3.4206,3.4206,0,0,0-.7666-.4278,10.22,10.22,0,0,0-.9659-.3379,10.861,10.861,0,0,1-1.3818-.5058,5.3167,5.3167,0,0,1-1.2148-.7373,3.586,3.586,0,0,1-.8643-1.02,2.6821,2.6821,0,0,1-.33-1.3486,2.8226,2.8226,0,0,1,.33-1.374,3.2039,3.2039,0,0,1,.8848-1.0313,4.1124,4.1124,0,0,1,1.2881-.6523,5.12,5.12,0,0,1,1.5322-.2285,4.7455,4.7455,0,0,1,1.6015.2656,4.0813,4.0813,0,0,1,1.3047.7412,3.5408,3.5408,0,0,1,.8848,1.1416,3.3764,3.3764,0,0,1,.334,1.4717H26.7324a2.8507,2.8507,0,0,0-.1924-.8193,1.8267,1.8267,0,0,0-1.0879-1.0557,2.5712,2.5712,0,0,0-.9052-.1475,2.777,2.777,0,0,0-.8145.1143,1.8812,1.8812,0,0,0-.6484.335,1.565,1.565,0,0,0-.4277.5293,1.544,1.544,0,0,0-.1553.7011,1.2332,1.2332,0,0,0,.2119.7217,2.0441,2.0441,0,0,0,.5547.5342,3.8392,3.8392,0,0,0,.7861.3955c.2969.1113.6045.2129.9258.3057a9.7119,9.7119,0,0,1,1.418.5419,5.0981,5.0981,0,0,1,1.19.7745,3.4776,3.4776,0,0,1,.8154,1.0478,2.9682,2.9682,0,0,1,.3018,1.3613,2.8259,2.8259,0,0,1-.334,1.3936,3.0807,3.0807,0,0,1-.8975,1.0107,4.0593,4.0593,0,0,1-1.3037.6162,5.7183,5.7183,0,0,1-1.55.2081,5.6272,5.6272,0,0,1-1.084-.1065,5.1263,5.1263,0,0,1-1.0312-.3174,4.5753,4.5753,0,0,1-.917-.5263A3.691,3.691,0,0,1,20.85,16.28a3.3526,3.3526,0,0,1-.4932-.9209,3.5281,3.5281,0,0,1-.1875-1.1211h1.9649a2.5722,2.5722,0,0,0,.2363.9375,1.9342,1.9342,0,0,0,.5225.664,2.2158,2.2158,0,0,0,.7617.3995,3.267,3.267,0,0,0,.9658.1347,3.0978,3.0978,0,0,0,.8242-.1054,2.0691,2.0691,0,0,0,.668-.3145,1.4981,1.4981,0,0,0,.4482-.5137A1.4466,1.4466,0,0,0,26.7236,14.7432Z"/><path d="M30.4814,17.8008V5.9307h2.9024a5.8521,5.8521,0,0,1,2.1973.4082,4.6456,4.6456,0,0,1,1.6552,1.125,5.0074,5.0074,0,0,1,1.0479,1.7324,6.6226,6.6226,0,0,1,.375,2.23v.8965a6.6226,6.6226,0,0,1-.375,2.23A4.9863,4.9863,0,0,1,37.24,16.28a4.6654,4.6654,0,0,1-1.6386,1.1211,5.58,5.58,0,0,1-2.16.3994ZM32.4707,7.5127v8.7148h.9707a3.3955,3.3955,0,0,0,1.41-.29,2.7357,2.7357,0,0,0,1.0068-.79,3.4548,3.4548,0,0,0,.6035-1.2276,6.1923,6.1923,0,0,0,.208-1.5976v-.9131a6.0079,6.0079,0,0,0-.208-1.5654,3.4964,3.4964,0,0,0-.6074-1.2266A2.8139,2.8139,0,0,0,34.8311,7.81a3.4512,3.4512,0,0,0-1.4473-.2969Z"/><path d="M47.9443,13.3818h-6.53V11.8086h6.53Z"/><path d="M52.6973,10.9854h1.166a2.7069,2.7069,0,0,0,.8965-.1348,1.7189,1.7189,0,0,0,.6357-.3789,1.55,1.55,0,0,0,.3789-.583,2.1209,2.1209,0,0,0,.127-.7461,1.8445,1.8445,0,0,0-.4532-1.333,1.8161,1.8161,0,0,0-1.3652-.4688,2.2327,2.2327,0,0,0-.7373.1182,1.757,1.757,0,0,0-.5879.3389,1.544,1.544,0,0,0-.3867.53,1.6878,1.6878,0,0,0-.1387.7H50.2842a2.9946,2.9946,0,0,1,.2812-1.2959,3.1281,3.1281,0,0,1,.7823-1.0312,3.7107,3.7107,0,0,1,1.1943-.6846,4.456,4.456,0,0,1,1.5166-.249,5.2319,5.2319,0,0,1,1.541.2158,3.3439,3.3439,0,0,1,1.1983.6406A2.8936,2.8936,0,0,1,57.5723,7.68,3.6177,3.6177,0,0,1,57.85,9.1426a2.5522,2.5522,0,0,1-.1064.7178,2.76,2.76,0,0,1-.3213.7089,3.0883,3.0883,0,0,1-.5469.6407,3.01,3.01,0,0,1-.7783.5009,3.0333,3.0333,0,0,1,.9053.4815,2.6462,2.6462,0,0,1,.5947.6562,2.5423,2.5423,0,0,1,.3262.7784,3.6775,3.6775,0,0,1,.0976.8476,3.4927,3.4927,0,0,1-.3017,1.4834,3.0923,3.0923,0,0,1-.835,1.0967,3.72,3.72,0,0,1-1.26.6767,5.3161,5.3161,0,0,1-3.041.0206,3.715,3.715,0,0,1-1.2353-.6319,3.107,3.107,0,0,1-.8516-1.0439,3.14,3.14,0,0,1-.3184-1.4463H52.127a1.8529,1.8529,0,0,0,.1376.7207,1.5632,1.5632,0,0,0,.3956.5625,1.8464,1.8464,0,0,0,.6162.3633,2.3453,2.3453,0,0,0,.8066.13,2.0752,2.0752,0,0,0,1.4639-.4932,1.852,1.852,0,0,0,.5332-1.4307,2.3011,2.3011,0,0,0-.1543-.8838,1.5746,1.5746,0,0,0-.4444-.6123,1.8689,1.8689,0,0,0-.6972-.3545,3.4178,3.4178,0,0,0-.9209-.1142h-1.166Z"/><path d="M67.9834,13.3818h-6.53V11.8086h6.53Z"/><path d="M78.6709,14.1563a4.7645,4.7645,0,0,1-.4082,1.5615,3.7288,3.7288,0,0,1-2.1318,1.9814,4.6168,4.6168,0,0,1-1.626.2725,4.0419,4.0419,0,0,1-1.8916-.42,3.9035,3.9035,0,0,1-1.3447-1.1368,5.0168,5.0168,0,0,1-.8077-1.68,7.8658,7.8658,0,0,1-.2773-2.0547V11.0586a7.5944,7.5944,0,0,1,.2861-2.05,5.1069,5.1069,0,0,1,.8194-1.6875A3.9362,3.9362,0,0,1,72.6377,6.18a4.0022,4.0022,0,0,1,1.875-.42,4.7144,4.7144,0,0,1,1.6719.2773,3.6164,3.6164,0,0,1,1.2549.7822,3.7351,3.7351,0,0,1,.832,1.2315,5.5288,5.5288,0,0,1,.3994,1.6142h-1.957a3.9543,3.9543,0,0,0-.1993-.95,2.2832,2.2832,0,0,0-.4121-.7334,1.69,1.69,0,0,0-.6562-.4687,2.4248,2.4248,0,0,0-.9336-.1631,1.9394,1.9394,0,0,0-1.1084.3018,2.2611,2.2611,0,0,0-.7256.8105,3.8678,3.8678,0,0,0-.3955,1.1787,8.01,8.01,0,0,0-.1182,1.4014v1.6387a8.2826,8.2826,0,0,0,.1182,1.4394,3.9482,3.9482,0,0,0,.3877,1.1778,2.1211,2.1211,0,0,0,.7168.7988,1.9923,1.9923,0,0,0,1.1172.2939,2.0262,2.0262,0,0,0,1.5654-.583,2.7329,2.7329,0,0,0,.6358-1.6513Z"/><path d="M82.82,16.2031h5.6582v1.5977H80.8643V5.9307H82.82Z"/><path d="M96.4512,15.0449h-3.71l-.8144,2.7559H89.9043l3.8564-11.87h1.72l3.7832,11.87H97.25ZM93.2393,13.374h2.7226L94.6172,8.7188Z"/><path d="M108.4355,5.9307l.0157,7.9492a4.7851,4.7851,0,0,1-.293,1.667,3.7928,3.7928,0,0,1-.7988,1.292,3.501,3.501,0,0,1-1.2432.831,4.3328,4.3328,0,0,1-1.6348.294,4.1677,4.1677,0,0,1-1.5976-.294,3.542,3.542,0,0,1-1.2315-.8271,3.7478,3.7478,0,0,1-.7988-1.2881A4.8257,4.8257,0,0,1,100.56,13.88l.0166-7.9492H102.5l.0166,7.9492a3.8635,3.8635,0,0,0,.1387,1.0019,2.4215,2.4215,0,0,0,.375.7871,1.702,1.702,0,0,0,.6074.5137,1.8449,1.8449,0,0,0,.8437.1836,1.946,1.946,0,0,0,.8643-.1836,1.7516,1.7516,0,0,0,.6279-.5137,2.337,2.337,0,0,0,.3828-.7871,3.855,3.855,0,0,0,.1387-1.0019l.0166-7.9492Z"/><path d="M116.8975,14.7432a1.5306,1.5306,0,0,0-.1758-.7452,1.77,1.77,0,0,0-.4971-.5673,3.3963,3.3963,0,0,0-.7666-.4278,10.1293,10.1293,0,0,0-.9658-.3379,10.9115,10.9115,0,0,1-1.3818-.5058,5.3413,5.3413,0,0,1-1.2149-.7373,3.6181,3.6181,0,0,1-.8642-1.02,2.6914,2.6914,0,0,1-.33-1.3486,2.8326,2.8326,0,0,1,.33-1.374,3.23,3.23,0,0,1,.8847-1.0313,4.1135,4.1135,0,0,1,1.2881-.6523,5.1272,5.1272,0,0,1,1.5332-.2285,4.7465,4.7465,0,0,1,1.6016.2656,4.1051,4.1051,0,0,1,1.3047.7412,3.5253,3.5253,0,0,1,.8837,1.1416,3.377,3.377,0,0,1,.335,1.4717h-1.957a2.8537,2.8537,0,0,0-.1914-.8193,1.8961,1.8961,0,0,0-.4239-.6407,1.8717,1.8717,0,0,0-.665-.415,2.57,2.57,0,0,0-.9043-.1475,2.7837,2.7837,0,0,0-.8154.1143,1.9008,1.9008,0,0,0-.6485.335,1.5892,1.5892,0,0,0-.4277.5293,1.5453,1.5453,0,0,0-.1553.7011,1.2338,1.2338,0,0,0,.2129.7217,2.0256,2.0256,0,0,0,.5537.5342,3.8508,3.8508,0,0,0,.7871.3955q.4438.1669.9248.3057a9.6764,9.6764,0,0,1,1.419.5419,5.1169,5.1169,0,0,1,1.19.7745,3.4905,3.4905,0,0,1,.8145,1.0478,2.9694,2.9694,0,0,1,.3017,1.3613,2.8259,2.8259,0,0,1-.334,1.3936,3.0662,3.0662,0,0,1-.8964,1.0107,4.0657,4.0657,0,0,1-1.3047.6162,5.707,5.707,0,0,1-1.5489.2081A5.6192,5.6192,0,0,1,113.71,17.85a5.0879,5.0879,0,0,1-1.0313-.3174,4.6108,4.6108,0,0,1-.918-.5263,3.66,3.66,0,0,1-.7373-.7256,3.3258,3.3258,0,0,1-.4931-.9209,3.4731,3.4731,0,0,1-.1875-1.1211h1.9648a2.5563,2.5563,0,0,0,.2363.9375,1.9317,1.9317,0,0,0,.5215.664,2.23,2.23,0,0,0,.7627.3995,3.2579,3.2579,0,0,0,.9658.1347,3.0969,3.0969,0,0,0,.8233-.1054,2.065,2.065,0,0,0,.6689-.3145,1.5186,1.5186,0,0,0,.4483-.5137A1.458,1.458,0,0,0,116.8975,14.7432Z"/><path d="M127.708,12.4775h-4.8838v3.7256h5.7149v1.5977h-7.68V5.9307h7.623V7.5449h-5.6582v3.3506h4.8838Z"/><path d="M138.1172,13.3818h-6.5293V11.8086h6.5293Z"/><path d="M148.8057,14.1563a4.7888,4.7888,0,0,1-.4073,1.5615,3.728,3.728,0,0,1-2.1318,1.9814,4.6256,4.6256,0,0,1-1.627.2725,4.0422,4.0422,0,0,1-1.8916-.42,3.9045,3.9045,0,0,1-1.3447-1.1368,5.0151,5.0151,0,0,1-.8066-1.68,7.7823,7.7823,0,0,1-.2774-2.0547V11.0586a7.59,7.59,0,0,1,.2852-2.05,5.1262,5.1262,0,0,1,.8193-1.6875A3.9375,3.9375,0,0,1,142.7725,6.18a4.0016,4.0016,0,0,1,1.875-.42,4.7134,4.7134,0,0,1,1.6718.2773,3.6062,3.6062,0,0,1,1.2549.7822,3.72,3.72,0,0,1,.8321,1.2315,5.5005,5.5005,0,0,1,.3994,1.6142h-1.9571a3.95,3.95,0,0,0-.1992-.95,2.2869,2.2869,0,0,0-.4121-.7334,1.69,1.69,0,0,0-.6562-.4687,2.4252,2.4252,0,0,0-.9336-.1631,1.9414,1.9414,0,0,0-1.1084.3018,2.2593,2.2593,0,0,0-.7256.8105,3.8678,3.8678,0,0,0-.3955,1.1787A8.0981,8.0981,0,0,0,142.3,11.042v1.6387a8.3716,8.3716,0,0,0,.1182,1.4394,3.9482,3.9482,0,0,0,.3877,1.1778,2.12,2.12,0,0,0,.7168.7988,1.9943,1.9943,0,0,0,1.1171.2939,2.025,2.025,0,0,0,1.5655-.583,2.7322,2.7322,0,0,0,.6357-1.6513Z"/><path d="M152.9551,16.2031h5.6582v1.5977H150.999V5.9307h1.9561Z"/><path d="M167.7842,12.4775H162.9v3.7256h5.7148v1.5977h-7.68V5.9307h7.6231V7.5449H162.9v3.3506h4.8838Z"/><path d="M176.6055,15.0449h-3.71l-.8154,2.7559h-2.0215l3.8564-11.87h1.72l3.7832,11.87h-2.0137Zm-3.2129-1.6709h2.7236l-1.3457-4.6552Z"/><path d="M184.8477,13.17h-1.9893v4.6309h-1.957V5.9307h3.75a6.2213,6.2213,0,0,1,1.6836.2324,3.8569,3.8569,0,0,1,1.333.6689,2.9992,2.9992,0,0,1,.872,1.1123,3.6848,3.6848,0,0,1,.3106,1.5655,3.5777,3.5777,0,0,1-.1592,1.0966A3.1856,3.1856,0,0,1,187.5625,12.2a4.4248,4.4248,0,0,1-.8809.5137l2.5108,4.9892v.0977h-2.0869Zm-1.9893-1.581H184.66a2.7564,2.7564,0,0,0,.8964-.1387,2.1137,2.1137,0,0,0,.7051-.3955,1.755,1.755,0,0,0,.461-.6279,2.1028,2.1028,0,0,0,.163-.8516,2.3327,2.3327,0,0,0-.1552-.8809,1.7209,1.7209,0,0,0-.4444-.6435,1.9164,1.9164,0,0,0-.705-.3955,3.1522,3.1522,0,0,0-.93-.1426h-1.793Z"/><path d="M187,2H12a10,10,0,0,0,0,20H187a10,10,0,0,0,0-20Zm0,18H12A8,8,0,0,1,12,4H187a8,8,0,0,1,0,16Z"/></svg>