<svg id="print" xmlns="http://www.w3.org/2000/svg" viewBox="0 0 109 24"><title>license</title><path d="M12.7725,16.2031H18.43v1.5977H10.8154V5.9307h1.9571Z"/><path d="M22.751,13.252v4.5488H20.7939V5.9307h3.9707a5.21,5.21,0,0,1,1.6426.2656A3.8145,3.8145,0,0,1,27.708,6.93,3.3368,3.3368,0,0,1,28.56,8.0869a3.7111,3.7111,0,0,1,.3056,1.5371,3.5592,3.5592,0,0,1-.3056,1.5,3.3323,3.3323,0,0,1-.8516,1.1416,3.831,3.831,0,0,1-1.3008.7256,5.3266,5.3266,0,0,1-1.6426.2608Zm0-1.5821h2.0136a2.4573,2.4573,0,0,0,.8887-.15,1.9493,1.9493,0,0,0,.668-.42,1.7905,1.7905,0,0,0,.4238-.6445,2.1982,2.1982,0,0,0,.1475-.8145,2.399,2.399,0,0,0-.1475-.8564,1.8791,1.8791,0,0,0-.4238-.6729,1.8994,1.8994,0,0,0-.668-.4355,2.4971,2.4971,0,0,0-.8887-.1631H22.751Z"/><path d="M32.77,13.252v4.5488h-1.956V5.9307h3.97a5.2117,5.2117,0,0,1,1.6436.2656,3.8211,3.8211,0,0,1,1.3.7334,3.3128,3.3128,0,0,1,.8515,1.1572,3.7111,3.7111,0,0,1,.3057,1.5371,3.5593,3.5593,0,0,1-.3057,1.5,3.3081,3.3081,0,0,1-.8515,1.1416,3.8377,3.8377,0,0,1-1.3.7256,5.3287,5.3287,0,0,1-1.6436.2608Zm0-1.5821h2.0137a2.4542,2.4542,0,0,0,.8887-.15,1.9533,1.9533,0,0,0,.6689-.42,1.8023,1.8023,0,0,0,.4238-.6445,2.2183,2.2183,0,0,0,.1465-.8145,2.4211,2.4211,0,0,0-.1465-.8564,1.86,1.86,0,0,0-1.0927-1.1084,2.4937,2.4937,0,0,0-.8887-.1631H32.77Z"/><path d="M42.83,16.2031h5.6582v1.5977H40.874V5.9307H42.83Z"/><path d="M58.0508,13.3818h-6.53V11.8086h6.53Z"/><path d="M66.0479,17.8008H64.084V8.3359L61.0508,9.4443V7.7324l4.875-1.8017h.1221Z"/><path d="M73.2305,16.6348a1.5353,1.5353,0,0,1,.0937-.5381,1.2287,1.2287,0,0,1,.2725-.4356,1.2771,1.2771,0,0,1,.4443-.29,1.8015,1.8015,0,0,1,1.2149,0,1.313,1.313,0,0,1,.4482.29,1.1884,1.1884,0,0,1,.2773.4356,1.5353,1.5353,0,0,1,.0938.5381,1.4367,1.4367,0,0,1-.0938.5263,1.1777,1.1777,0,0,1-.2773.42,1.3093,1.3093,0,0,1-.4482.2812,1.8667,1.8667,0,0,1-1.2149,0,1.2732,1.2732,0,0,1-.4443-.2812,1.218,1.218,0,0,1-.2725-.42A1.4366,1.4366,0,0,1,73.2305,16.6348Z"/><path d="M82.8418,10.9854h1.166a2.6986,2.6986,0,0,0,.8965-.1348,1.7216,1.7216,0,0,0,.6367-.3789,1.5728,1.5728,0,0,0,.3789-.583,2.1209,2.1209,0,0,0,.126-.7461,1.8445,1.8445,0,0,0-.4521-1.333,1.8165,1.8165,0,0,0-1.3653-.4688,2.243,2.243,0,0,0-.7383.1182,1.7523,1.7523,0,0,0-.5869.3389,1.5338,1.5338,0,0,0-.3877.53,1.7037,1.7037,0,0,0-.1377.7H80.4287A2.9946,2.9946,0,0,1,80.71,7.7324a3.1173,3.1173,0,0,1,.7832-1.0312,3.7,3.7,0,0,1,1.1943-.6846,4.45,4.45,0,0,1,1.5156-.249,5.2223,5.2223,0,0,1,1.541.2158,3.3272,3.3272,0,0,1,1.1983.6406A2.8959,2.8959,0,0,1,87.7178,7.68a3.6178,3.6178,0,0,1,.2763,1.4629,2.5869,2.5869,0,0,1-.1054.7178,2.794,2.794,0,0,1-.3223.7089,3.08,3.08,0,0,1-.5459.6407,3.0272,3.0272,0,0,1-.7783.5009,3.0151,3.0151,0,0,1,.9043.4815,2.6314,2.6314,0,0,1,.5957.6562,2.5376,2.5376,0,0,1,.3252.7784,3.6782,3.6782,0,0,1,.0986.8476,3.4927,3.4927,0,0,1-.3017,1.4834,3.0834,3.0834,0,0,1-.836,1.0967,3.7005,3.7005,0,0,1-1.26.6767,5.3165,5.3165,0,0,1-3.0411.0206,3.71,3.71,0,0,1-1.2343-.6319,3.0978,3.0978,0,0,1-.8526-1.0439,3.14,3.14,0,0,1-.3174-1.4463h1.9483a1.8335,1.8335,0,0,0,.1387.7207,1.5389,1.5389,0,0,0,.3955.5625,1.8328,1.8328,0,0,0,.6152.3633,2.3515,2.3515,0,0,0,.8076.13,2.0722,2.0722,0,0,0,1.4629-.4932,1.8521,1.8521,0,0,0,.5342-1.4307,2.2817,2.2817,0,0,0-.1553-.8838,1.5655,1.5655,0,0,0-.4443-.6123,1.855,1.855,0,0,0-.6973-.3545,3.4126,3.4126,0,0,0-.9209-.1142h-1.166Z"/><path d="M98.7959,14.1563a4.7888,4.7888,0,0,1-.4072,1.5615,3.7285,3.7285,0,0,1-2.1319,1.9814,4.6255,4.6255,0,0,1-1.6269.2725,4.0419,4.0419,0,0,1-1.8916-.42,3.9035,3.9035,0,0,1-1.3447-1.1368,5.0152,5.0152,0,0,1-.8067-1.68,7.7823,7.7823,0,0,1-.2773-2.0547V11.0586a7.5944,7.5944,0,0,1,.2851-2.05,5.1244,5.1244,0,0,1,.8194-1.6875A3.9362,3.9362,0,0,1,92.7627,6.18a4.0022,4.0022,0,0,1,1.875-.42,4.7144,4.7144,0,0,1,1.6719.2773,3.6081,3.6081,0,0,1,1.2549.7822,3.72,3.72,0,0,1,.832,1.2315,5.5005,5.5005,0,0,1,.3994,1.6142h-1.957a3.9543,3.9543,0,0,0-.1993-.95,2.2832,2.2832,0,0,0-.4121-.7334,1.69,1.69,0,0,0-.6562-.4687,2.4248,2.4248,0,0,0-.9336-.1631,1.9414,1.9414,0,0,0-1.1084.3018,2.2611,2.2611,0,0,0-.7256.8105,3.8678,3.8678,0,0,0-.3955,1.1787A8.108,8.108,0,0,0,92.29,11.042v1.6387a8.3816,8.3816,0,0,0,.1182,1.4394,3.9482,3.9482,0,0,0,.3877,1.1778,2.1211,2.1211,0,0,0,.7168.7988,1.9946,1.9946,0,0,0,1.1172.2939,2.0247,2.0247,0,0,0,1.5654-.583,2.7329,2.7329,0,0,0,.6358-1.6513Z"/><path d="M97,2H12a10,10,0,0,0,0,20H97A10,10,0,0,0,97,2Zm0,18H12A8,8,0,0,1,12,4H97a8,8,0,0,1,0,16Z"/></svg>