<svg id="print" xmlns="http://www.w3.org/2000/svg" viewBox="0 0 99 24"><title>license</title><path d="M12.7822,16.2031H18.44v1.5977H10.8252V5.9307h1.957Z"/><path d="M28.6221,16.3174a4.14,4.14,0,0,1-.709.66A4.6239,4.6239,0,0,1,27,17.499a5.5982,5.5982,0,0,1-1.0967.3428,6.2341,6.2341,0,0,1-1.26.1221,4.1357,4.1357,0,0,1-1.8907-.416,4.0919,4.0919,0,0,1-1.3906-1.1368,5.1442,5.1442,0,0,1-.8643-1.7,7.4,7.4,0,0,1-.3056-2.1035V11.1406a7.2669,7.2669,0,0,1,.2939-2.1035A5.3019,5.3019,0,0,1,21.33,7.333a4.0285,4.0285,0,0,1,1.3486-1.1455,3.8765,3.8765,0,0,1,1.8262-.42,5.0089,5.0089,0,0,1,1.6474.2529,3.5733,3.5733,0,0,1,1.2471.7295,3.46,3.46,0,0,1,.8272,1.1621,4.8779,4.8779,0,0,1,.3877,1.5322H26.69a3.8463,3.8463,0,0,0-.2285-.8642,2.019,2.019,0,0,0-.416-.6524,1.7369,1.7369,0,0,0-.6318-.4111,2.4445,2.4445,0,0,0-.876-.1426,1.8318,1.8318,0,0,0-1.0645.3057,2.4426,2.4426,0,0,0-.7373.8232,4.0893,4.0893,0,0,0-.4326,1.1983,7.63,7.63,0,0,0-.1465,1.4228v1.4834a7.2407,7.2407,0,0,0,.1514,1.419,3.9108,3.9108,0,0,0,.4482,1.1943,2.44,2.44,0,0,0,.7862.8272,2.1441,2.1441,0,0,0,1.1582.3183,4.6072,4.6072,0,0,0,.57-.0371,3.2519,3.2519,0,0,0,.5586-.1182,2.3118,2.3118,0,0,0,.4853-.208,1.1519,1.1519,0,0,0,.3584-.3134l.0166-2.3721H24.5459V11.792h4.06Z"/><path d="M32.7793,13.252v4.5488H30.8232V5.9307h3.97a5.211,5.211,0,0,1,1.6435.2656,3.8192,3.8192,0,0,1,1.3.7334,3.3119,3.3119,0,0,1,.8516,1.1572,3.7111,3.7111,0,0,1,.3057,1.5371,3.5593,3.5593,0,0,1-.3057,1.5,3.3071,3.3071,0,0,1-.8516,1.1416,3.8358,3.8358,0,0,1-1.3.7256,5.328,5.328,0,0,1-1.6435.2608Zm0-1.5821H34.793a2.4533,2.4533,0,0,0,.8886-.15,1.9537,1.9537,0,0,0,.669-.42,1.8023,1.8023,0,0,0,.4238-.6445,2.2183,2.2183,0,0,0,.1465-.8145,2.4211,2.4211,0,0,0-.1465-.8564,1.86,1.86,0,0,0-1.0928-1.1084,2.4927,2.4927,0,0,0-.8886-.1631H32.7793Z"/><path d="M42.84,16.2031H48.498v1.5977H40.8838V5.9307H42.84Z"/><path d="M58.0605,13.3818H51.53V11.8086h6.53Z"/><path d="M62.8135,10.9854H63.98a2.7069,2.7069,0,0,0,.8965-.1348,1.7173,1.7173,0,0,0,.6357-.3789,1.55,1.55,0,0,0,.3789-.583,2.1209,2.1209,0,0,0,.127-.7461,1.8449,1.8449,0,0,0-.4531-1.333,1.8165,1.8165,0,0,0-1.3653-.4688,2.2327,2.2327,0,0,0-.7373.1182,1.757,1.757,0,0,0-.5879.3389,1.544,1.544,0,0,0-.3867.53,1.6878,1.6878,0,0,0-.1387.7H60.4a2.9946,2.9946,0,0,1,.2812-1.2959,3.1281,3.1281,0,0,1,.7823-1.0312,3.7107,3.7107,0,0,1,1.1943-.6846,4.456,4.456,0,0,1,1.5166-.249,5.2319,5.2319,0,0,1,1.541.2158,3.3439,3.3439,0,0,1,1.1983.6406A2.8936,2.8936,0,0,1,67.6885,7.68a3.6177,3.6177,0,0,1,.2773,1.4629,2.5522,2.5522,0,0,1-.1064.7178,2.76,2.76,0,0,1-.3213.7089,3.0853,3.0853,0,0,1-.5469.6407,3.01,3.01,0,0,1-.7783.5009,3.0333,3.0333,0,0,1,.9053.4815,2.6462,2.6462,0,0,1,.5947.6562,2.5423,2.5423,0,0,1,.3262.7784,3.6775,3.6775,0,0,1,.0976.8476,3.4927,3.4927,0,0,1-.3017,1.4834A3.0923,3.0923,0,0,1,67,17.0547a3.7188,3.7188,0,0,1-1.26.6767,5.3161,5.3161,0,0,1-3.041.0206,3.715,3.715,0,0,1-1.2353-.6319,3.107,3.107,0,0,1-.8516-1.0439,3.14,3.14,0,0,1-.3184-1.4463h1.9493a1.8511,1.8511,0,0,0,.1377.7207,1.5617,1.5617,0,0,0,.3955.5625,1.8464,1.8464,0,0,0,.6162.3633,2.3457,2.3457,0,0,0,.8066.13,2.075,2.075,0,0,0,1.4639-.4932,1.8516,1.8516,0,0,0,.5332-1.4307,2.3011,2.3011,0,0,0-.1543-.8838,1.5754,1.5754,0,0,0-.4443-.6123,1.87,1.87,0,0,0-.6973-.3545,3.4178,3.4178,0,0,0-.9209-.1142h-1.166Z"/><path d="M73.24,16.6348a1.5353,1.5353,0,0,1,.0938-.5381,1.23,1.23,0,0,1,.2724-.4356,1.2775,1.2775,0,0,1,.4444-.29,1.8013,1.8013,0,0,1,1.2148,0,1.3125,1.3125,0,0,1,.4483.29,1.1884,1.1884,0,0,1,.2773.4356,1.5353,1.5353,0,0,1,.0938.5381,1.4367,1.4367,0,0,1-.0938.5263,1.1777,1.1777,0,0,1-.2773.42,1.3088,1.3088,0,0,1-.4483.2812,1.8664,1.8664,0,0,1-1.2148,0,1.2736,1.2736,0,0,1-.4444-.2812,1.2192,1.2192,0,0,1-.2724-.42A1.4367,1.4367,0,0,1,73.24,16.6348Z"/><path d="M88.4434,13.2842a7.051,7.051,0,0,1-.2637,2.0263,4.1178,4.1178,0,0,1-.7617,1.4668,3.1731,3.1731,0,0,1-1.2149.8926,4.4471,4.4471,0,0,1-3.2207,0,3.1858,3.1858,0,0,1-1.2187-.8926,4.1335,4.1335,0,0,1-.7744-1.4668,6.8025,6.8025,0,0,1-.2735-2.0263V10.4473a6.897,6.897,0,0,1,.27-2.0254,4.0642,4.0642,0,0,1,.77-1.4678A3.2021,3.2021,0,0,1,82.97,6.0615,4.078,4.078,0,0,1,84.5723,5.76a4.1248,4.1248,0,0,1,1.6132.3017,3.1968,3.1968,0,0,1,1.2188.8926,4.0967,4.0967,0,0,1,.7715,1.4678,6.9,6.9,0,0,1,.2676,2.0254Zm-5.77-.7422,3.7978-2.8281a3.1211,3.1211,0,0,0-.5332-1.7979,1.6485,1.6485,0,0,0-1.3652-.583,1.6247,1.6247,0,0,0-1.4268.6768,3.6618,3.6618,0,0,0-.4726,2.0791Zm3.8154-1.2959-3.8,2.8291q.1479,2.332,1.8994,2.3311,1.8984,0,1.9-2.7793Z"/><path d="M87,2H12a10,10,0,0,0,0,20H87A10,10,0,0,0,87,2Zm0,18H12A8,8,0,0,1,12,4H87a8,8,0,0,1,0,16Z"/></svg>