<svg id="print" xmlns="http://www.w3.org/2000/svg" viewBox="0 0 49 24"><title>license</title><path d="M13.001,5.9307l1.4756,5.1279,1.6308-5.1279h2.4287v11.87H16.6943V13.7246l.1143-5.2012-1.8262,5.6905H13.9551L12.3,8.7188l.1143,5.0058v4.0762H10.5713V5.9307Z"/><path d="M20.9658,5.9307h7.0606v1.622H25.458v8.6338h2.5684v1.6143H20.9658V16.1865h2.5108V7.5527H20.9658Z"/><path d="M39.1289,7.5449H35.4854V17.8008H33.5371V7.5449h-3.62V5.9307h9.2119Z"/><path d="M37,2H12a10,10,0,0,0,0,20H37A10,10,0,0,0,37,2Zm0,18H12A8,8,0,0,1,12,4H37a8,8,0,0,1,0,16Z"/></svg>