<svg id="print" xmlns="http://www.w3.org/2000/svg" viewBox="0 0 99 24"><title>license</title><path d="M12.7822,16.2031H18.44v1.5977H10.8252V5.9307h1.957Z"/><path d="M28.6221,16.3174a4.14,4.14,0,0,1-.709.66A4.6239,4.6239,0,0,1,27,17.499a5.5982,5.5982,0,0,1-1.0967.3428,6.2341,6.2341,0,0,1-1.26.1221,4.1357,4.1357,0,0,1-1.8907-.416,4.0919,4.0919,0,0,1-1.3906-1.1368,5.1442,5.1442,0,0,1-.8643-1.7,7.4,7.4,0,0,1-.3056-2.1035V11.1406a7.2669,7.2669,0,0,1,.2939-2.1035A5.3019,5.3019,0,0,1,21.33,7.333a4.0285,4.0285,0,0,1,1.3486-1.1455,3.8765,3.8765,0,0,1,1.8262-.42,5.0089,5.0089,0,0,1,1.6474.2529,3.5733,3.5733,0,0,1,1.2471.7295,3.46,3.46,0,0,1,.8272,1.1621,4.8779,4.8779,0,0,1,.3877,1.5322H26.69a3.8463,3.8463,0,0,0-.2285-.8642,2.019,2.019,0,0,0-.416-.6524,1.7369,1.7369,0,0,0-.6318-.4111,2.4445,2.4445,0,0,0-.876-.1426,1.8318,1.8318,0,0,0-1.0645.3057,2.4426,2.4426,0,0,0-.7373.8232,4.0893,4.0893,0,0,0-.4326,1.1983,7.63,7.63,0,0,0-.1465,1.4228v1.4834a7.2407,7.2407,0,0,0,.1514,1.419,3.9108,3.9108,0,0,0,.4482,1.1943,2.44,2.44,0,0,0,.7862.8272,2.1441,2.1441,0,0,0,1.1582.3183,4.6072,4.6072,0,0,0,.57-.0371,3.2519,3.2519,0,0,0,.5586-.1182,2.3118,2.3118,0,0,0,.4853-.208,1.1519,1.1519,0,0,0,.3584-.3134l.0166-2.3721H24.5459V11.792h4.06Z"/><path d="M32.7793,13.252v4.5488H30.8232V5.9307h3.97a5.211,5.211,0,0,1,1.6435.2656,3.8192,3.8192,0,0,1,1.3.7334,3.3119,3.3119,0,0,1,.8516,1.1572,3.7111,3.7111,0,0,1,.3057,1.5371,3.5593,3.5593,0,0,1-.3057,1.5,3.3071,3.3071,0,0,1-.8516,1.1416,3.8358,3.8358,0,0,1-1.3.7256,5.328,5.328,0,0,1-1.6435.2608Zm0-1.5821H34.793a2.4533,2.4533,0,0,0,.8886-.15,1.9537,1.9537,0,0,0,.669-.42,1.8023,1.8023,0,0,0,.4238-.6445,2.2183,2.2183,0,0,0,.1465-.8145,2.4211,2.4211,0,0,0-.1465-.8564,1.86,1.86,0,0,0-1.0928-1.1084,2.4927,2.4927,0,0,0-.8886-.1631H32.7793Z"/><path d="M42.84,16.2031H48.498v1.5977H40.8838V5.9307H42.84Z"/><path d="M58.0605,13.3818H51.53V11.8086h6.53Z"/><path d="M68.3486,17.8008H60.376V16.4561L64.24,12.2412q.4893-.5463.8194-.9668a5.9087,5.9087,0,0,0,.5254-.7705,2.91,2.91,0,0,0,.2773-.6514,2.3209,2.3209,0,0,0,.082-.6113,2.1949,2.1949,0,0,0-.1269-.7549,1.7365,1.7365,0,0,0-.3584-.5947,1.6248,1.6248,0,0,0-.5625-.3877,1.9017,1.9017,0,0,0-.7383-.1387,1.9566,1.9566,0,0,0-1.56.5791,2.3574,2.3574,0,0,0-.502,1.5977H60.14a3.8333,3.8333,0,0,1,.2813-1.4629,3.5189,3.5189,0,0,1,.8066-1.2021,3.8093,3.8093,0,0,1,1.2764-.8116,4.95,4.95,0,0,1,3.2529-.0449,3.3137,3.3137,0,0,1,1.1573.7051,2.9777,2.9777,0,0,1,.7177,1.0723,3.676,3.676,0,0,1,.2442,1.3613,3.24,3.24,0,0,1-.18,1.0722,5.1906,5.1906,0,0,1-.4971,1.0313,8.5829,8.5829,0,0,1-.7578,1.0312q-.4409.5172-.9541,1.0635l-2.69,2.8867h5.5517Z"/><path d="M73.24,16.6348a1.5353,1.5353,0,0,1,.0938-.5381,1.23,1.23,0,0,1,.2724-.4356,1.2775,1.2775,0,0,1,.4444-.29,1.8013,1.8013,0,0,1,1.2148,0,1.3125,1.3125,0,0,1,.4483.29,1.1884,1.1884,0,0,1,.2773.4356,1.5353,1.5353,0,0,1,.0938.5381,1.4367,1.4367,0,0,1-.0938.5263,1.1777,1.1777,0,0,1-.2773.42,1.3088,1.3088,0,0,1-.4483.2812,1.8664,1.8664,0,0,1-1.2148,0,1.2736,1.2736,0,0,1-.4444-.2812,1.2192,1.2192,0,0,1-.2724-.42A1.4367,1.4367,0,0,1,73.24,16.6348Z"/><path d="M86.0957,17.8008H84.1318V8.3359L81.1,9.4443V7.7324l4.875-1.8017h.1211Z"/><path d="M87,2H12a10,10,0,0,0,0,20H87A10,10,0,0,0,87,2Zm0,18H12A8,8,0,0,1,12,4H87a8,8,0,0,1,0,16Z"/></svg>