<svg id="print" xmlns="http://www.w3.org/2000/svg" viewBox="0 0 109 24"><title>license</title><path d="M18.3486,5.9307l.0157,7.9492a4.7851,4.7851,0,0,1-.293,1.667,3.7928,3.7928,0,0,1-.7988,1.292,3.501,3.501,0,0,1-1.2432.831,4.3332,4.3332,0,0,1-1.6348.294,4.1677,4.1677,0,0,1-1.5976-.294,3.542,3.542,0,0,1-1.2315-.8271,3.7478,3.7478,0,0,1-.7988-1.2881,4.8257,4.8257,0,0,1-.2939-1.6748l.0166-7.9492h1.9238L12.43,13.88a3.855,3.855,0,0,0,.1387,1.0019,2.4215,2.4215,0,0,0,.375.7871,1.7011,1.7011,0,0,0,.6074.5137,1.8447,1.8447,0,0,0,.8437.1836,1.946,1.946,0,0,0,.8643-.1836,1.7516,1.7516,0,0,0,.6279-.5137,2.337,2.337,0,0,0,.3828-.7871,3.8635,3.8635,0,0,0,.1387-1.0019l.0166-7.9492Z"/><path d="M28.3271,17.8008H26.3545L22.49,9.6318l-.0088,8.169h-1.98V5.9307h1.98L26.33,14.0752l.0156-8.1445h1.9814Z"/><path d="M32.8105,16.2031h5.6583v1.5977H30.8545V5.9307h1.956Z"/><path d="M40.9473,5.9307h7.06v1.622H45.44v8.6338h2.5673v1.6143H40.9473V16.1865H43.458V7.5527H40.9473Z"/><path d="M58.7188,14.1563a4.7664,4.7664,0,0,1-.4073,1.5615,3.8337,3.8337,0,0,1-.8642,1.207,3.7908,3.7908,0,0,1-1.2676.7744,4.6178,4.6178,0,0,1-1.627.2725,4.038,4.038,0,0,1-1.8906-.42,3.9161,3.9161,0,0,1-1.3457-1.1368,5.0151,5.0151,0,0,1-.8066-1.68,7.7823,7.7823,0,0,1-.2774-2.0547V11.0586a7.59,7.59,0,0,1,.2852-2.05,5.1243,5.1243,0,0,1,.8193-1.6875,3.94,3.94,0,0,1,1.35-1.1416,4.0022,4.0022,0,0,1,1.875-.42,4.7083,4.7083,0,0,1,1.6709.2773,3.6207,3.6207,0,0,1,1.2559.7822,3.7176,3.7176,0,0,1,.831,1.2315,5.4663,5.4663,0,0,1,.4,1.6142H56.7627a3.9975,3.9975,0,0,0-.2-.95,2.2851,2.2851,0,0,0-.4111-.7334,1.7049,1.7049,0,0,0-.6563-.4687,2.4283,2.4283,0,0,0-.9336-.1631,1.943,1.943,0,0,0-1.1094.3018,2.2692,2.2692,0,0,0-.7255.8105,3.8432,3.8432,0,0,0-.3946,1.1787,8.0105,8.0105,0,0,0-.1181,1.4014v1.6387A8.2829,8.2829,0,0,0,52.332,14.12a3.9226,3.9226,0,0,0,.3868,1.1778,2.1307,2.1307,0,0,0,.7177.7988,1.9914,1.9914,0,0,0,1.1162.2939,2.0235,2.0235,0,0,0,1.5655-.583,2.7207,2.7207,0,0,0,.6357-1.6513Z"/><path d="M67.6787,12.4775H62.7959v3.7256h5.7148v1.5977h-7.68V5.9307h7.622V7.5449H62.7959v3.3506h4.8828Z"/><path d="M78.4229,17.8008H76.45l-3.8643-8.169-.0078,8.169H70.5967V5.9307h1.9814l3.8477,8.1445.0166-8.1445h1.98Z"/><path d="M86.9268,14.7432a1.5306,1.5306,0,0,0-.1758-.7452,1.77,1.77,0,0,0-.4971-.5673,3.3963,3.3963,0,0,0-.7666-.4278,10.1293,10.1293,0,0,0-.9658-.3379,10.9185,10.9185,0,0,1-1.3819-.5058,5.3406,5.3406,0,0,1-1.2148-.7373,3.62,3.62,0,0,1-.8643-1.02,2.6924,2.6924,0,0,1-.33-1.3486,2.8337,2.8337,0,0,1,.33-1.374,3.231,3.231,0,0,1,.8848-1.0313,4.1135,4.1135,0,0,1,1.2881-.6523,5.1272,5.1272,0,0,1,1.5332-.2285,4.7465,4.7465,0,0,1,1.6016.2656,4.1051,4.1051,0,0,1,1.3047.7412,3.5253,3.5253,0,0,1,.8837,1.1416,3.377,3.377,0,0,1,.335,1.4717h-1.957a2.8537,2.8537,0,0,0-.1914-.8193,1.8961,1.8961,0,0,0-.4239-.6407,1.8717,1.8717,0,0,0-.665-.415,2.57,2.57,0,0,0-.9043-.1475,2.7837,2.7837,0,0,0-.8154.1143,1.9008,1.9008,0,0,0-.6485.335,1.5892,1.5892,0,0,0-.4277.5293,1.5453,1.5453,0,0,0-.1553.7011,1.2338,1.2338,0,0,0,.2129.7217,2.0256,2.0256,0,0,0,.5537.5342,3.8508,3.8508,0,0,0,.7871.3955q.4438.1669.9248.3057a9.6764,9.6764,0,0,1,1.419.5419,5.1169,5.1169,0,0,1,1.19.7745,3.4905,3.4905,0,0,1,.8145,1.0478,2.9694,2.9694,0,0,1,.3017,1.3613,2.8259,2.8259,0,0,1-.334,1.3936,3.0662,3.0662,0,0,1-.8964,1.0107,4.0657,4.0657,0,0,1-1.3047.6162,5.707,5.707,0,0,1-1.5489.2081,5.6192,5.6192,0,0,1-1.0839-.1065,5.0879,5.0879,0,0,1-1.0313-.3174,4.6108,4.6108,0,0,1-.918-.5263,3.66,3.66,0,0,1-.7373-.7256,3.3258,3.3258,0,0,1-.4931-.9209,3.4731,3.4731,0,0,1-.1875-1.1211h1.9648a2.5563,2.5563,0,0,0,.2363.9375,1.9317,1.9317,0,0,0,.5215.664,2.23,2.23,0,0,0,.7627.3995,3.2579,3.2579,0,0,0,.9658.1347,3.0969,3.0969,0,0,0,.8233-.1054,2.065,2.065,0,0,0,.6689-.3145,1.5186,1.5186,0,0,0,.4483-.5137A1.458,1.458,0,0,0,86.9268,14.7432Z"/><path d="M97.7363,12.4775H92.8525v3.7256h5.7149v1.5977h-7.68V5.9307h7.623V7.5449H92.8525v3.3506h4.8838Z"/><path d="M97,2H12a10,10,0,0,0,0,20H97A10,10,0,0,0,97,2Zm0,18H12A8,8,0,0,1,12,4H97a8,8,0,0,1,0,16Z"/></svg>