<svg id="print" xmlns="http://www.w3.org/2000/svg" viewBox="0 0 139 24"><title>license</title><path d="M18.6133,14.1563a4.7645,4.7645,0,0,1-.4082,1.5615,3.7285,3.7285,0,0,1-2.1319,1.9814,4.6159,4.6159,0,0,1-1.6259.2725,4.0419,4.0419,0,0,1-1.8916-.42,3.9039,3.9039,0,0,1-1.3448-1.1368,5.0186,5.0186,0,0,1-.8076-1.68,7.8616,7.8616,0,0,1-.2773-2.0547V11.0586a7.59,7.59,0,0,1,.2861-2.05,5.1067,5.1067,0,0,1,.8193-1.6875A3.9375,3.9375,0,0,1,12.58,6.18a4.0022,4.0022,0,0,1,1.875-.42,4.7144,4.7144,0,0,1,1.6719.2773,3.6159,3.6159,0,0,1,1.2548.7822,3.7353,3.7353,0,0,1,.8321,1.2315,5.532,5.532,0,0,1,.3994,1.6142h-1.957a3.9543,3.9543,0,0,0-.1993-.95,2.2851,2.2851,0,0,0-.4121-.7334,1.69,1.69,0,0,0-.6562-.4687,2.4248,2.4248,0,0,0-.9336-.1631,1.9392,1.9392,0,0,0-1.1084.3018,2.2611,2.2611,0,0,0-.7256.8105,3.8678,3.8678,0,0,0-.3955,1.1787,8.01,8.01,0,0,0-.1182,1.4014v1.6387a8.2826,8.2826,0,0,0,.1182,1.4394,3.9482,3.9482,0,0,0,.3877,1.1778,2.1211,2.1211,0,0,0,.7168.7988,1.9923,1.9923,0,0,0,1.1172.2939,2.0264,2.0264,0,0,0,1.5654-.583,2.7322,2.7322,0,0,0,.6357-1.6513Z"/><path d="M28.6328,14.1563a4.7645,4.7645,0,0,1-.4082,1.5615,3.728,3.728,0,0,1-2.1318,1.9814,4.6164,4.6164,0,0,1-1.626.2725,4.0419,4.0419,0,0,1-1.8916-.42,3.9035,3.9035,0,0,1-1.3447-1.1368,5.0148,5.0148,0,0,1-.8076-1.68,7.8616,7.8616,0,0,1-.2774-2.0547V11.0586a7.5944,7.5944,0,0,1,.2861-2.05,5.1069,5.1069,0,0,1,.8194-1.6875A3.9362,3.9362,0,0,1,22.6,6.18a4.0022,4.0022,0,0,1,1.875-.42,4.7144,4.7144,0,0,1,1.6719.2773,3.6164,3.6164,0,0,1,1.2549.7822,3.7351,3.7351,0,0,1,.832,1.2315,5.5257,5.5257,0,0,1,.3994,1.6142h-1.957a3.9543,3.9543,0,0,0-.1992-.95,2.2869,2.2869,0,0,0-.4121-.7334,1.6908,1.6908,0,0,0-.6563-.4687,2.4248,2.4248,0,0,0-.9336-.1631,1.9394,1.9394,0,0,0-1.1084.3018,2.2611,2.2611,0,0,0-.7256.8105,3.8705,3.8705,0,0,0-.3955,1.1787,8.0105,8.0105,0,0,0-.1181,1.4014v1.6387a8.2829,8.2829,0,0,0,.1181,1.4394,3.9482,3.9482,0,0,0,.3877,1.1778,2.1211,2.1211,0,0,0,.7168.7988,1.9923,1.9923,0,0,0,1.1172.2939,2.0261,2.0261,0,0,0,1.5654-.583,2.7329,2.7329,0,0,0,.6358-1.6513Z"/><path d="M37.9834,13.3818h-6.53V11.8086h6.53Z"/><path d="M40.6494,17.8008V5.9307H44.44a6.8408,6.8408,0,0,1,1.6016.1963,3.9216,3.9216,0,0,1,1.3047.5781,2.7684,2.7684,0,0,1,.876.999,2.9945,2.9945,0,0,1,.3095,1.4385,2.4241,2.4241,0,0,1-.4892,1.5049,3.1252,3.1252,0,0,1-1.2959.9658,3.0834,3.0834,0,0,1,.8847.3955,2.5165,2.5165,0,0,1,.6485.6152,2.7774,2.7774,0,0,1,.3994.7949,3.0545,3.0545,0,0,1,.1387.9249,3.3955,3.3955,0,0,1-.3106,1.4921,3.0007,3.0007,0,0,1-.8594,1.0762,3.8771,3.8771,0,0,1-1.3046.6563,5.8632,5.8632,0,0,1-1.627.2324Zm1.9649-6.8721h1.875a3.1609,3.1609,0,0,0,.8193-.1182,1.9693,1.9693,0,0,0,.6562-.3261,1.6188,1.6188,0,0,0,.4405-.53,1.5441,1.5441,0,0,0,.1621-.7217,1.7372,1.7372,0,0,0-.1543-.7666,1.3824,1.3824,0,0,0-.4365-.5215,1.9048,1.9048,0,0,0-.6641-.2978,3.9135,3.9135,0,0,0-.84-.1016H42.6143Zm0,1.4912v3.7832H44.75a2.696,2.696,0,0,0,.8477-.1426,2.0569,2.0569,0,0,0,.66-.371,1.6928,1.6928,0,0,0,.4365-.5791,1.806,1.806,0,0,0,.1592-.7666,2.2031,2.2031,0,0,0-.1387-.8028,1.6156,1.6156,0,0,0-.3994-.5986,1.828,1.828,0,0,0-.6357-.38,2.6533,2.6533,0,0,0-.84-.1426Z"/><path d="M54.4834,11.6045l2.4707-5.6738h2.1846l-3.7012,7.6064-.0166,4.2637H53.5215l-.0166-4.3125L49.8281,5.9307h2.1856Z"/><path d="M68.041,13.3818h-6.53V11.8086h6.53Z"/><path d="M76.8779,14.7432a1.5415,1.5415,0,0,0-.1748-.7452,1.7955,1.7955,0,0,0-.497-.5673,3.4206,3.4206,0,0,0-.7666-.4278,10.22,10.22,0,0,0-.9659-.3379,10.861,10.861,0,0,1-1.3818-.5058,5.3167,5.3167,0,0,1-1.2148-.7373,3.586,3.586,0,0,1-.8643-1.02,2.6821,2.6821,0,0,1-.33-1.3486,2.8226,2.8226,0,0,1,.33-1.374,3.2039,3.2039,0,0,1,.8848-1.0313,4.1129,4.1129,0,0,1,1.288-.6523,5.1208,5.1208,0,0,1,1.5323-.2285,4.7455,4.7455,0,0,1,1.6015.2656,4.0813,4.0813,0,0,1,1.3047.7412,3.5408,3.5408,0,0,1,.8848,1.1416,3.3764,3.3764,0,0,1,.334,1.4717H76.8867a2.8507,2.8507,0,0,0-.1924-.8193,1.8267,1.8267,0,0,0-1.0879-1.0557,2.5712,2.5712,0,0,0-.9052-.1475,2.777,2.777,0,0,0-.8145.1143,1.8812,1.8812,0,0,0-.6484.335,1.5665,1.5665,0,0,0-.4278.5293,1.5453,1.5453,0,0,0-.1552.7011,1.2332,1.2332,0,0,0,.2119.7217,2.0441,2.0441,0,0,0,.5547.5342,3.8392,3.8392,0,0,0,.7861.3955c.2969.1113.6045.2129.9258.3057a9.7119,9.7119,0,0,1,1.418.5419,5.0981,5.0981,0,0,1,1.19.7745,3.4776,3.4776,0,0,1,.8154,1.0478,2.9682,2.9682,0,0,1,.3018,1.3613,2.827,2.827,0,0,1-.334,1.3936,3.0807,3.0807,0,0,1-.8975,1.0107,4.0593,4.0593,0,0,1-1.3037.6162,5.7183,5.7183,0,0,1-1.55.2081A5.6272,5.6272,0,0,1,73.69,17.85a5.1263,5.1263,0,0,1-1.0312-.3174,4.5753,4.5753,0,0,1-.917-.5263,3.691,3.691,0,0,1-.7383-.7256,3.3526,3.3526,0,0,1-.4932-.9209,3.5281,3.5281,0,0,1-.1875-1.1211h1.9649a2.5722,2.5722,0,0,0,.2363.9375,1.9342,1.9342,0,0,0,.5225.664,2.2158,2.2158,0,0,0,.7617.3995,3.267,3.267,0,0,0,.9658.1347,3.0978,3.0978,0,0,0,.8242-.1054,2.0691,2.0691,0,0,0,.668-.3145,1.4981,1.4981,0,0,0,.4482-.5137A1.4466,1.4466,0,0,0,76.8779,14.7432Z"/><path d="M86.49,15.0449H82.78l-.8145,2.7559H79.9434L83.8,5.9307h1.72l3.7832,11.87H87.2891ZM83.2783,13.374H86.001L84.6563,8.7188Z"/><path d="M98.0986,13.3818h-6.53V11.8086h6.53Z"/><path d="M107.2461,13.5859h1.4922v1.5733h-1.4922v2.6416h-1.9492V15.1592h-5.1514l-.0488-1.1817,5.1357-8.0468h2.0137Zm-5.1445,0h3.1953V8.5313l-.211.3837Z"/><path d="M113.2783,16.6348a1.5353,1.5353,0,0,1,.0938-.5381,1.2182,1.2182,0,0,1,.2734-.4356,1.2679,1.2679,0,0,1,.4443-.29,1.8015,1.8015,0,0,1,1.2149,0,1.3306,1.3306,0,0,1,.4482.29,1.1981,1.1981,0,0,1,.2764.4356,1.5358,1.5358,0,0,1,.0947.5381,1.4369,1.4369,0,0,1-.0947.5263,1.1875,1.1875,0,0,1-.2764.42,1.3267,1.3267,0,0,1-.4482.2812,1.8667,1.8667,0,0,1-1.2149,0,1.264,1.264,0,0,1-.4443-.2812,1.2074,1.2074,0,0,1-.2734-.42A1.4367,1.4367,0,0,1,113.2783,16.6348Z"/><path d="M128.4824,13.2842a7.0182,7.0182,0,0,1-.2646,2.0263,4.0877,4.0877,0,0,1-.7617,1.4668,3.1655,3.1655,0,0,1-1.2149.8926,4.4471,4.4471,0,0,1-3.2207,0,3.1851,3.1851,0,0,1-1.2187-.8926,4.1352,4.1352,0,0,1-.7745-1.4668,6.8385,6.8385,0,0,1-.2734-2.0263V10.4473a6.9,6.9,0,0,1,.2695-2.0254,4.0969,4.0969,0,0,1,.77-1.4678,3.2066,3.2066,0,0,1,1.2149-.8926A4.073,4.073,0,0,1,124.61,5.76a4.13,4.13,0,0,1,1.6142.3017,3.1975,3.1975,0,0,1,1.2188.8926,4.0969,4.0969,0,0,1,.77,1.4678,6.8988,6.8988,0,0,1,.2685,2.0254Zm-5.7715-.7422L126.51,9.7139a3.1208,3.1208,0,0,0-.5342-1.7979,1.6485,1.6485,0,0,0-1.3652-.583,1.6247,1.6247,0,0,0-1.4268.6768,3.6617,3.6617,0,0,0-.4727,2.0791Zm3.8155-1.2959-3.7989,2.8291q.1465,2.332,1.8995,2.3311,1.8984,0,1.8994-2.7793Z"/><path d="M127,2H12a10,10,0,0,0,0,20H127a10,10,0,0,0,0-20Zm0,18H12A8,8,0,0,1,12,4H127a8,8,0,0,1,0,16Z"/></svg>