<svg id="print" xmlns="http://www.w3.org/2000/svg" viewBox="0 0 119 24"><title>license</title><path d="M12.7217,13.252v4.5488H10.7646V5.9307h3.9708a5.21,5.21,0,0,1,1.6425.2656,3.8145,3.8145,0,0,1,1.3008.7334A3.3368,3.3368,0,0,1,18.53,8.0869a3.7111,3.7111,0,0,1,.3056,1.5371,3.5592,3.5592,0,0,1-.3056,1.5,3.3323,3.3323,0,0,1-.8516,1.1416,3.831,3.831,0,0,1-1.3008.7256,5.3264,5.3264,0,0,1-1.6425.2608Zm0-1.5821h2.0137a2.4571,2.4571,0,0,0,.8886-.15,1.9493,1.9493,0,0,0,.668-.42,1.7905,1.7905,0,0,0,.4238-.6445,2.1982,2.1982,0,0,0,.1475-.8145,2.399,2.399,0,0,0-.1475-.8564,1.8791,1.8791,0,0,0-.4238-.6729,1.8994,1.8994,0,0,0-.668-.4355,2.4969,2.4969,0,0,0-.8886-.1631H12.7217Z"/><path d="M28.6846,12.6318a7.4688,7.4688,0,0,1-.27,2.0176,5.2894,5.2894,0,0,1-.8027,1.7041,3.96,3.96,0,0,1-1.3369,1.1738,3.8744,3.8744,0,0,1-1.8789.4366,3.7559,3.7559,0,0,1-1.8594-.4405,3.9544,3.9544,0,0,1-1.3164-1.1777,5.3493,5.3493,0,0,1-.791-1.7,7.5389,7.5389,0,0,1-.2647-2.0137V11.1162a7.83,7.83,0,0,1,.1182-1.37,6.5661,6.5661,0,0,1,.3506-1.26,5.3654,5.3654,0,0,1,.5791-1.0918,3.6839,3.6839,0,0,1,1.875-1.4228,3.9638,3.9638,0,0,1,1.3-.2041,3.8515,3.8515,0,0,1,1.8789.44,4.0624,4.0624,0,0,1,1.3418,1.1777,5.2476,5.2476,0,0,1,.8066,1.7081,7.5249,7.5249,0,0,1,.27,2.0224ZM26.72,11.1a8.55,8.55,0,0,0-.122-1.3291,4.0127,4.0127,0,0,0-.3838-1.1777,2.3571,2.3571,0,0,0-.7129-.84,1.85,1.85,0,0,0-1.1133-.3222,1.7963,1.7963,0,0,0-1.0967.3222,2.2848,2.2848,0,0,0-.6924.8438A4.0539,4.0539,0,0,0,22.24,9.7744,9.2467,9.2467,0,0,0,22.13,11.1v1.5322a8.8394,8.8394,0,0,0,.1142,1.3252,4.2076,4.2076,0,0,0,.3623,1.1817,2.3069,2.3069,0,0,0,.6934.8525,1.783,1.783,0,0,0,1.0967.3262,1.833,1.833,0,0,0,1.1123-.3262,2.4049,2.4049,0,0,0,.7139-.8476,4.0242,4.0242,0,0,0,.3789-1.1827,8.7846,8.7846,0,0,0,.1181-1.3291Z"/><path d="M36.82,14.7432a1.5306,1.5306,0,0,0-.1758-.7452,1.771,1.771,0,0,0-.497-.5673,3.4007,3.4007,0,0,0-.7666-.4278,10.1218,10.1218,0,0,0-.9659-.3379,10.9172,10.9172,0,0,1-1.3818-.5058,5.3384,5.3384,0,0,1-1.2148-.7373,3.6185,3.6185,0,0,1-.8643-1.02,2.6924,2.6924,0,0,1-.33-1.3486,2.8338,2.8338,0,0,1,.33-1.374,3.2286,3.2286,0,0,1,.8848-1.0313,4.1124,4.1124,0,0,1,1.2881-.6523A5.1267,5.1267,0,0,1,34.66,5.7676a4.746,4.746,0,0,1,1.6015.2656,4.1029,4.1029,0,0,1,1.3047.7412A3.5242,3.5242,0,0,1,38.45,7.916a3.377,3.377,0,0,1,.335,1.4717H36.8281a2.85,2.85,0,0,0-.1914-.8193,1.8974,1.8974,0,0,0-.4238-.6407,1.8717,1.8717,0,0,0-.665-.415,2.57,2.57,0,0,0-.9043-.1475,2.7839,2.7839,0,0,0-.8155.1143,1.8994,1.8994,0,0,0-.6484.335,1.588,1.588,0,0,0-.4277.5293,1.544,1.544,0,0,0-.1553.7011,1.2338,1.2338,0,0,0,.2129.7217,2.0256,2.0256,0,0,0,.5537.5342,3.8482,3.8482,0,0,0,.7871.3955q.4439.1669.9248.3057a9.6752,9.6752,0,0,1,1.4189.5419,5.1176,5.1176,0,0,1,1.1905.7745,3.4886,3.4886,0,0,1,.8144,1.0478,2.9682,2.9682,0,0,1,.3018,1.3613,2.8259,2.8259,0,0,1-.334,1.3936,3.0676,3.0676,0,0,1-.8965,1.0107,4.0647,4.0647,0,0,1-1.3047.6162,5.7057,5.7057,0,0,1-1.5488.2081,5.62,5.62,0,0,1-1.084-.1065,5.087,5.087,0,0,1-1.0312-.3174,4.6108,4.6108,0,0,1-.918-.5263,3.66,3.66,0,0,1-.7373-.7256,3.3261,3.3261,0,0,1-.4932-.9209,3.4731,3.4731,0,0,1-.1875-1.1211h1.9649a2.5523,2.5523,0,0,0,.2363.9375,1.9317,1.9317,0,0,0,.5215.664,2.23,2.23,0,0,0,.7627.3995,3.2575,3.2575,0,0,0,.9658.1347,3.0956,3.0956,0,0,0,.8232-.1054,2.0646,2.0646,0,0,0,.669-.3145,1.5183,1.5183,0,0,0,.4482-.5137A1.458,1.458,0,0,0,36.82,14.7432Z"/><path d="M49.0811,7.5449H45.4375V17.8008H43.4893V7.5449h-3.62V5.9307h9.212Z"/><path d="M58.66,16.3174a4.14,4.14,0,0,1-.709.66,4.6239,4.6239,0,0,1-.9131.5215,5.6,5.6,0,0,1-1.0967.3428,6.2344,6.2344,0,0,1-1.26.1221,4.1353,4.1353,0,0,1-1.8906-.416A4.0919,4.0919,0,0,1,51.4,16.4111a5.1442,5.1442,0,0,1-.8643-1.7,7.4,7.4,0,0,1-.3056-2.1035V11.1406a7.2669,7.2669,0,0,1,.2939-2.1035,5.3019,5.3019,0,0,1,.8438-1.7041,4.0285,4.0285,0,0,1,1.3486-1.1455,3.8765,3.8765,0,0,1,1.8262-.42,5.0089,5.0089,0,0,1,1.6474.2529,3.5742,3.5742,0,0,1,1.2471.7295,3.4585,3.4585,0,0,1,.8271,1.1621,4.8725,4.8725,0,0,1,.3877,1.5322H56.7285A3.8463,3.8463,0,0,0,56.5,8.58a2.019,2.019,0,0,0-.416-.6524,1.7364,1.7364,0,0,0-.6319-.4111,2.4436,2.4436,0,0,0-.8759-.1426,1.8318,1.8318,0,0,0-1.0645.3057,2.4426,2.4426,0,0,0-.7373.8232,4.0893,4.0893,0,0,0-.4326,1.1983,7.63,7.63,0,0,0-.1465,1.4228v1.4834a7.2407,7.2407,0,0,0,.1514,1.419,3.9108,3.9108,0,0,0,.4482,1.1943,2.4385,2.4385,0,0,0,.7862.8272,2.1438,2.1438,0,0,0,1.1582.3183,4.6072,4.6072,0,0,0,.57-.0371,3.2519,3.2519,0,0,0,.5586-.1182,2.3118,2.3118,0,0,0,.4853-.208,1.153,1.153,0,0,0,.3584-.3134l.0166-2.3721H54.584V11.792h4.06Z"/><path d="M64.6934,13.17H62.7041v4.6309H60.748V5.9307h3.75a6.214,6.214,0,0,1,1.6827.2324,3.8569,3.8569,0,0,1,1.333.6689,3.0119,3.0119,0,0,1,.873,1.1123,3.7,3.7,0,0,1,.31,1.5655,3.5476,3.5476,0,0,1-.1592,1.0966A3.1856,3.1856,0,0,1,67.4082,12.2a4.4,4.4,0,0,1-.8809.5137l2.5108,4.9892v.0977H66.9512Zm-1.9893-1.581h1.8018a2.7564,2.7564,0,0,0,.8964-.1387,2.1137,2.1137,0,0,0,.7051-.3955,1.7432,1.7432,0,0,0,.461-.6279,2.1028,2.1028,0,0,0,.163-.8516,2.3327,2.3327,0,0,0-.1552-.8809,1.7107,1.7107,0,0,0-.4444-.6435,1.9164,1.9164,0,0,0-.705-.3955,3.1508,3.1508,0,0,0-.9288-.1426H62.7041Z"/><path d="M77.6885,12.4775H72.8047v3.7256H78.52v1.5977H70.84V5.9307h7.6231V7.5449H72.8047v3.3506h4.8838Z"/><path d="M86.917,14.7432a1.5306,1.5306,0,0,0-.1758-.7452,1.77,1.77,0,0,0-.4971-.5673,3.3963,3.3963,0,0,0-.7666-.4278,10.12,10.12,0,0,0-.9658-.3379,10.9115,10.9115,0,0,1-1.3818-.5058,5.3413,5.3413,0,0,1-1.2149-.7373,3.62,3.62,0,0,1-.8642-1.02,2.6924,2.6924,0,0,1-.33-1.3486,2.8338,2.8338,0,0,1,.33-1.374,3.23,3.23,0,0,1,.8847-1.0313,4.1146,4.1146,0,0,1,1.2881-.6523,5.1272,5.1272,0,0,1,1.5332-.2285,4.7465,4.7465,0,0,1,1.6016.2656,4.104,4.104,0,0,1,1.3047.7412,3.5242,3.5242,0,0,1,.8838,1.1416,3.3769,3.3769,0,0,1,.3349,1.4717h-1.957a2.85,2.85,0,0,0-.1914-.8193,1.8974,1.8974,0,0,0-.4238-.6407,1.8713,1.8713,0,0,0-.6651-.415,2.57,2.57,0,0,0-.9043-.1475,2.7837,2.7837,0,0,0-.8154.1143,1.8994,1.8994,0,0,0-.6484.335,1.5883,1.5883,0,0,0-.4278.5293,1.5453,1.5453,0,0,0-.1552.7011,1.2331,1.2331,0,0,0,.2129.7217,2.0242,2.0242,0,0,0,.5537.5342,3.8482,3.8482,0,0,0,.7871.3955q.4439.1669.9248.3057a9.68,9.68,0,0,1,1.4189.5419,5.1176,5.1176,0,0,1,1.1905.7745,3.4918,3.4918,0,0,1,.8144,1.0478,2.9682,2.9682,0,0,1,.3018,1.3613,2.827,2.827,0,0,1-.334,1.3936,3.0676,3.0676,0,0,1-.8965,1.0107,4.0657,4.0657,0,0,1-1.3047.6162,5.7057,5.7057,0,0,1-1.5488.2081A5.62,5.62,0,0,1,83.73,17.85a5.09,5.09,0,0,1-1.0313-.3174,4.61,4.61,0,0,1-.9179-.5263,3.6571,3.6571,0,0,1-.7373-.7256,3.3234,3.3234,0,0,1-.4932-.9209,3.4731,3.4731,0,0,1-.1875-1.1211h1.9648a2.5543,2.5543,0,0,0,.2364.9375,1.9317,1.9317,0,0,0,.5215.664,2.2278,2.2278,0,0,0,.7627.3995,3.2575,3.2575,0,0,0,.9658.1347,3.0961,3.0961,0,0,0,.8232-.1054,2.0656,2.0656,0,0,0,.669-.3145,1.5194,1.5194,0,0,0,.4482-.5137A1.458,1.458,0,0,0,86.917,14.7432Z"/><path d="M98.9,12.7305a6.6181,6.6181,0,0,1-.1065,1.1894,6.7281,6.7281,0,0,1-.3056,1.1338,5.1883,5.1883,0,0,1-.5049,1.0225,4.5038,4.5038,0,0,1-.7051.8525L99.3,18.665l-1.2959,1.1817-2.3154-2.0293q-.2609.0645-.542.1055a4.1074,4.1074,0,0,1-.5918.041,3.7773,3.7773,0,0,1-1.8867-.4522,4.0956,4.0956,0,0,1-1.333-1.19,5.2619,5.2619,0,0,1-.7911-1.6758,7.3248,7.3248,0,0,1-.2685-1.915V11.2139a8.955,8.955,0,0,1,.1221-1.3907,6.5546,6.5546,0,0,1,.3505-1.288,5.3562,5.3562,0,0,1,.587-1.1123,4.0181,4.0181,0,0,1,.8232-.877,3.6026,3.6026,0,0,1,1.0723-.5742,4.093,4.093,0,0,1,1.3242-.2041,3.9008,3.9008,0,0,1,1.9082.4482,4.0441,4.0441,0,0,1,1.3535,1.2031,5.44,5.44,0,0,1,.8066,1.74A8.013,8.013,0,0,1,98.9,11.2139Zm-1.9727-1.5332a8.5336,8.5336,0,0,0-.11-1.3692,4.1291,4.1291,0,0,0-.3789-1.207,2.3558,2.3558,0,0,0-.73-.86,1.9362,1.9362,0,0,0-1.1543-.33,1.8588,1.8588,0,0,0-1.1367.33,2.3393,2.3393,0,0,0-.7051.8643A4.1754,4.1754,0,0,0,92.35,9.8359a9.2057,9.2057,0,0,0-.1016,1.3614v1.5332a7.8085,7.8085,0,0,0,.1016,1.2343,4.0486,4.0486,0,0,0,.3633,1.1582,2.3784,2.3784,0,0,0,.7051.8594,1.8348,1.8348,0,0,0,1.1367.335,1.9048,1.9048,0,0,0,1.1582-.335,2.4235,2.4235,0,0,0,.7256-.8554,4.008,4.008,0,0,0,.3789-1.1582,7.2768,7.2768,0,0,0,.11-1.2383Z"/><path d="M102.9355,16.2031h5.6583v1.5977H100.98V5.9307h1.956Z"/><path d="M107,2H12a10,10,0,0,0,0,20h95a10,10,0,0,0,0-20Zm0,18H12A8,8,0,0,1,12,4h95a8,8,0,0,1,0,16Z"/></svg>