<svg id="print" xmlns="http://www.w3.org/2000/svg" viewBox="0 0 109 24"><title>license</title><path d="M18.6416,14.1563a4.7639,4.7639,0,0,1-.4072,1.5615,3.8355,3.8355,0,0,1-.8643,1.207,3.79,3.79,0,0,1-1.2676.7744,4.6176,4.6176,0,0,1-1.6269.2725,4.0374,4.0374,0,0,1-1.8906-.42,3.9152,3.9152,0,0,1-1.3457-1.1368,5.0152,5.0152,0,0,1-.8067-1.68,7.7823,7.7823,0,0,1-.2773-2.0547V11.0586a7.5944,7.5944,0,0,1,.2851-2.05A5.1244,5.1244,0,0,1,11.26,7.3213a3.94,3.94,0,0,1,1.35-1.1416,4.0022,4.0022,0,0,1,1.875-.42,4.7087,4.7087,0,0,1,1.6709.2773,3.62,3.62,0,0,1,1.2558.7822,3.7178,3.7178,0,0,1,.8311,1.2315,5.4694,5.4694,0,0,1,.3994,1.6142H16.6855a4.0025,4.0025,0,0,0-.2-.95,2.2853,2.2853,0,0,0-.4112-.7334,1.7046,1.7046,0,0,0-.6562-.4687,2.4283,2.4283,0,0,0-.9336-.1631,1.9426,1.9426,0,0,0-1.1094.3018,2.27,2.27,0,0,0-.7256.8105,3.8405,3.8405,0,0,0-.3945,1.1787,8.01,8.01,0,0,0-.1182,1.4014v1.6387a8.2826,8.2826,0,0,0,.1182,1.4394,3.92,3.92,0,0,0,.3867,1.1778,2.131,2.131,0,0,0,.7178.7988,1.9912,1.9912,0,0,0,1.1162.2939,2.0234,2.0234,0,0,0,1.5654-.583,2.7207,2.7207,0,0,0,.6358-1.6513Z"/><path d="M28.6611,14.1563a4.7639,4.7639,0,0,1-.4072,1.5615,3.8355,3.8355,0,0,1-.8643,1.207,3.7894,3.7894,0,0,1-1.2675.7744,4.6181,4.6181,0,0,1-1.627.2725,4.038,4.038,0,0,1-1.8906-.42,3.9161,3.9161,0,0,1-1.3457-1.1368,5.0171,5.0171,0,0,1-.8067-1.68,7.7864,7.7864,0,0,1-.2773-2.0547V11.0586a7.59,7.59,0,0,1,.2852-2.05,5.1243,5.1243,0,0,1,.8193-1.6875,3.94,3.94,0,0,1,1.35-1.1416,4.0022,4.0022,0,0,1,1.875-.42,4.7087,4.7087,0,0,1,1.6709.2773,3.6207,3.6207,0,0,1,1.2559.7822,3.7176,3.7176,0,0,1,.831,1.2315,5.4632,5.4632,0,0,1,.3994,1.6142h-1.956a3.9975,3.9975,0,0,0-.2-.95,2.2851,2.2851,0,0,0-.4111-.7334,1.7057,1.7057,0,0,0-.6563-.4687,2.4283,2.4283,0,0,0-.9336-.1631,1.943,1.943,0,0,0-1.1094.3018,2.27,2.27,0,0,0-.7256.8105,3.8432,3.8432,0,0,0-.3945,1.1787,8.0105,8.0105,0,0,0-.1181,1.4014v1.6387a8.2829,8.2829,0,0,0,.1181,1.4394,3.92,3.92,0,0,0,.3867,1.1778,2.1318,2.1318,0,0,0,.7178.7988,1.9912,1.9912,0,0,0,1.1162.2939,2.0233,2.0233,0,0,0,1.5654-.583,2.7207,2.7207,0,0,0,.6358-1.6513Z"/><path d="M38.0117,13.3818h-6.53V11.8086h6.53Z"/><path d="M40.6777,17.8008V5.9307h3.7911a6.8553,6.8553,0,0,1,1.6025.1963,3.9072,3.9072,0,0,1,1.3037.5781,2.7711,2.7711,0,0,1,.877.999,3.0061,3.0061,0,0,1,.3095,1.4385,2.4358,2.4358,0,0,1-.4892,1.5049,3.1316,3.1316,0,0,1-1.2959.9658,3.079,3.079,0,0,1,.8838.3955,2.486,2.486,0,0,1,.6484.6152,2.7774,2.7774,0,0,1,.3994.7949,3.0238,3.0238,0,0,1,.1387.9249,3.4081,3.4081,0,0,1-.31,1.4921,3.0042,3.0042,0,0,1-.86,1.0762,3.8786,3.8786,0,0,1-1.3047.6563,5.856,5.856,0,0,1-1.626.2324Zm1.9649-6.8721h1.875a3.1546,3.1546,0,0,0,.8193-.1182,1.9519,1.9519,0,0,0,.6563-.3261,1.6075,1.6075,0,0,0,.44-.53,1.5444,1.5444,0,0,0,.1631-.7217,1.737,1.737,0,0,0-.1553-.7666,1.3709,1.3709,0,0,0-.4355-.5215,1.9016,1.9016,0,0,0-.6651-.2978,3.9031,3.9031,0,0,0-.8388-.1016H42.6426Zm0,1.4912v3.7832h2.1357a2.6974,2.6974,0,0,0,.8487-.1426,2.0774,2.0774,0,0,0,.66-.371,1.6792,1.6792,0,0,0,.4356-.5791,1.7925,1.7925,0,0,0,.1591-.7666,2.1843,2.1843,0,0,0-.1386-.8028,1.606,1.606,0,0,0-.3994-.5986,1.8112,1.8112,0,0,0-.6358-.38,2.6482,2.6482,0,0,0-.84-.1426Z"/><path d="M54.5127,11.6045l2.47-5.6738H59.167l-3.7012,7.6064L55.45,17.8008H53.5508l-.0166-4.3125L49.8574,5.9307H52.042Z"/><path d="M68.07,13.3818H61.54V11.8086h6.53Z"/><path d="M77.2168,13.5859H78.709v1.5733H77.2168v2.6416H75.2686V15.1592H70.1162l-.0488-1.1817,5.1357-8.0468h2.0137Zm-5.1445,0h3.1963V8.5313l-.212.3837Z"/><path d="M83.25,16.6348a1.5353,1.5353,0,0,1,.0938-.5381,1.23,1.23,0,0,1,.2724-.4356,1.2771,1.2771,0,0,1,.4443-.29,1.8015,1.8015,0,0,1,1.2149,0,1.312,1.312,0,0,1,.4482.29,1.1874,1.1874,0,0,1,.2774.4356,1.5353,1.5353,0,0,1,.0937.5381,1.4366,1.4366,0,0,1-.0937.5263,1.1767,1.1767,0,0,1-.2774.42,1.3083,1.3083,0,0,1-.4482.2812,1.8667,1.8667,0,0,1-1.2149,0,1.2732,1.2732,0,0,1-.4443-.2812,1.2192,1.2192,0,0,1-.2724-.42A1.4367,1.4367,0,0,1,83.25,16.6348Z"/><path d="M98.4531,13.2842a7.0182,7.0182,0,0,1-.2646,2.0263,4.0877,4.0877,0,0,1-.7617,1.4668,3.1655,3.1655,0,0,1-1.2149.8926,4.4471,4.4471,0,0,1-3.2207,0,3.1851,3.1851,0,0,1-1.2187-.8926,4.1352,4.1352,0,0,1-.7745-1.4668,6.8385,6.8385,0,0,1-.2734-2.0263V10.4473a6.9,6.9,0,0,1,.27-2.0254,4.0969,4.0969,0,0,1,.77-1.4678A3.2066,3.2066,0,0,1,92.98,6.0615,4.073,4.073,0,0,1,94.5811,5.76a4.13,4.13,0,0,1,1.6142.3017,3.1975,3.1975,0,0,1,1.2188.8926,4.0969,4.0969,0,0,1,.77,1.4678,6.8988,6.8988,0,0,1,.2685,2.0254Zm-5.7715-.7422,3.7989-2.8281a3.1208,3.1208,0,0,0-.5342-1.7979,1.6485,1.6485,0,0,0-1.3652-.583,1.6247,1.6247,0,0,0-1.4268.6768,3.6617,3.6617,0,0,0-.4727,2.0791Zm3.8155-1.2959-3.7989,2.8291q.1466,2.332,1.9,2.3311,1.8984,0,1.8994-2.7793Z"/><path d="M97,2H12a10,10,0,0,0,0,20H97A10,10,0,0,0,97,2Zm0,18H12A8,8,0,0,1,12,4H97a8,8,0,0,1,0,16Z"/></svg>