<svg id="print" xmlns="http://www.w3.org/2000/svg" viewBox="0 0 139 24"><title>license</title><path d="M10.5908,17.8008V5.9307h3.791a6.8561,6.8561,0,0,1,1.6026.1963,3.9081,3.9081,0,0,1,1.3037.5781,2.77,2.77,0,0,1,.8769.999,3.0049,3.0049,0,0,1,.31,1.4385,2.4358,2.4358,0,0,1-.4892,1.5049,3.1323,3.1323,0,0,1-1.2959.9658,3.0772,3.0772,0,0,1,.8837.3955,2.4849,2.4849,0,0,1,.6485.6152,2.7774,2.7774,0,0,1,.3994.7949,3.0238,3.0238,0,0,1,.1387.9249,3.4081,3.4081,0,0,1-.31,1.4921,3.0034,3.0034,0,0,1-.86,1.0762,3.8771,3.8771,0,0,1-1.3046.6563,5.856,5.856,0,0,1-1.626.2324Zm1.9649-6.8721h1.875a3.1546,3.1546,0,0,0,.8193-.1182,1.9519,1.9519,0,0,0,.6563-.3261,1.6075,1.6075,0,0,0,.44-.53,1.5444,1.5444,0,0,0,.1631-.7217,1.737,1.737,0,0,0-.1553-.7666,1.3711,1.3711,0,0,0-.4356-.5215,1.9011,1.9011,0,0,0-.665-.2978,3.9033,3.9033,0,0,0-.8389-.1016H12.5557Zm0,1.4912v3.7832h2.1357a2.6963,2.6963,0,0,0,.8486-.1426,2.0779,2.0779,0,0,0,.66-.371,1.6777,1.6777,0,0,0,.4355-.5791,1.7911,1.7911,0,0,0,.1592-.7666,2.1843,2.1843,0,0,0-.1386-.8028,1.605,1.605,0,0,0-.4-.5986,1.81,1.81,0,0,0-.6357-.38,2.6482,2.6482,0,0,0-.84-.1426Z"/><path d="M26.7822,14.7432a1.5306,1.5306,0,0,0-.1758-.7452,1.771,1.771,0,0,0-.497-.5673,3.4007,3.4007,0,0,0-.7666-.4278,10.1293,10.1293,0,0,0-.9658-.3379,10.9129,10.9129,0,0,1-1.3819-.5058,5.3384,5.3384,0,0,1-1.2148-.7373,3.6185,3.6185,0,0,1-.8643-1.02,2.6924,2.6924,0,0,1-.33-1.3486,2.8338,2.8338,0,0,1,.33-1.374,3.2286,3.2286,0,0,1,.8848-1.0313,4.1124,4.1124,0,0,1,1.2881-.6523,5.1267,5.1267,0,0,1,1.5332-.2285,4.7455,4.7455,0,0,1,1.6015.2656,4.1029,4.1029,0,0,1,1.3047.7412,3.5242,3.5242,0,0,1,.8838,1.1416,3.377,3.377,0,0,1,.335,1.4717H26.79a2.85,2.85,0,0,0-.1914-.8193,1.8974,1.8974,0,0,0-.4238-.6407,1.8717,1.8717,0,0,0-.665-.415,2.57,2.57,0,0,0-.9043-.1475A2.7839,2.7839,0,0,0,23.79,7.48a1.8994,1.8994,0,0,0-.6484.335,1.5892,1.5892,0,0,0-.4277.5293,1.5453,1.5453,0,0,0-.1553.7011,1.2338,1.2338,0,0,0,.2129.7217,2.0256,2.0256,0,0,0,.5537.5342,3.8482,3.8482,0,0,0,.7871.3955q.4439.1669.9248.3057a9.6807,9.6807,0,0,1,1.419.5419,5.1191,5.1191,0,0,1,1.19.7745,3.4886,3.4886,0,0,1,.8144,1.0478,2.9682,2.9682,0,0,1,.3018,1.3613,2.8259,2.8259,0,0,1-.334,1.3936,3.0665,3.0665,0,0,1-.8965,1.0107,4.0647,4.0647,0,0,1-1.3047.6162,5.7057,5.7057,0,0,1-1.5488.2081,5.62,5.62,0,0,1-1.084-.1065,5.089,5.089,0,0,1-1.0312-.3174,4.6108,4.6108,0,0,1-.918-.5263,3.66,3.66,0,0,1-.7373-.7256,3.3261,3.3261,0,0,1-.4932-.9209,3.4731,3.4731,0,0,1-.1875-1.1211h1.9649a2.5543,2.5543,0,0,0,.2363.9375,1.9317,1.9317,0,0,0,.5215.664,2.23,2.23,0,0,0,.7627.3995,3.2575,3.2575,0,0,0,.9658.1347,3.0969,3.0969,0,0,0,.8233-.1054,2.065,2.065,0,0,0,.6689-.3145,1.5173,1.5173,0,0,0,.4482-.5137A1.458,1.458,0,0,0,26.7822,14.7432Z"/><path d="M30.54,17.8008V5.9307h2.9024a5.8512,5.8512,0,0,1,2.1972.4082,4.6324,4.6324,0,0,1,1.6543,1.125,4.9787,4.9787,0,0,1,1.0479,1.7324,6.6226,6.6226,0,0,1,.375,2.23v.8965a6.6226,6.6226,0,0,1-.375,2.23A4.9725,4.9725,0,0,1,37.2979,16.28,4.6718,4.6718,0,0,1,35.66,17.4014a5.5852,5.5852,0,0,1-2.1612.3994ZM32.5293,7.5127v8.7148h.97a3.4,3.4,0,0,0,1.4112-.29,2.74,2.74,0,0,0,1.0058-.79A3.4235,3.4235,0,0,0,36.52,13.92a6.1066,6.1066,0,0,0,.208-1.5976v-.9131a5.924,5.924,0,0,0-.208-1.5654,3.4627,3.4627,0,0,0-.6074-1.2266A2.8017,2.8017,0,0,0,34.89,7.81a3.4538,3.4538,0,0,0-1.4472-.2969Z"/><path d="M48.0029,13.3818h-6.53V11.8086h6.53Z"/><path d="M52.7549,10.9854h1.166a2.6986,2.6986,0,0,0,.8965-.1348,1.7224,1.7224,0,0,0,.6367-.3789,1.5741,1.5741,0,0,0,.3789-.583,2.1209,2.1209,0,0,0,.126-.7461,1.8441,1.8441,0,0,0-.4522-1.333,1.8161,1.8161,0,0,0-1.3652-.4688,2.243,2.243,0,0,0-.7383.1182,1.7523,1.7523,0,0,0-.5869.3389,1.5338,1.5338,0,0,0-.3877.53,1.7037,1.7037,0,0,0-.1377.7H50.3418a2.9946,2.9946,0,0,1,.2812-1.2959,3.1176,3.1176,0,0,1,.7833-1.0312,3.7,3.7,0,0,1,1.1943-.6846,4.45,4.45,0,0,1,1.5156-.249,5.2223,5.2223,0,0,1,1.541.2158,3.3272,3.3272,0,0,1,1.1983.6406A2.8959,2.8959,0,0,1,57.6309,7.68a3.6178,3.6178,0,0,1,.2763,1.4629,2.5869,2.5869,0,0,1-.1054.7178,2.7975,2.7975,0,0,1-.3223.7089,3.0827,3.0827,0,0,1-.5459.6407,3.0272,3.0272,0,0,1-.7783.5009,3.0151,3.0151,0,0,1,.9043.4815,2.6314,2.6314,0,0,1,.5957.6562,2.54,2.54,0,0,1,.3252.7784,3.6782,3.6782,0,0,1,.0986.8476,3.4912,3.4912,0,0,1-.3018,1.4834,3.082,3.082,0,0,1-.8359,1.0967,3.701,3.701,0,0,1-1.26.6767,5.3161,5.3161,0,0,1-3.041.0206,3.71,3.71,0,0,1-1.2343-.6319,3.0978,3.0978,0,0,1-.8526-1.0439,3.14,3.14,0,0,1-.3174-1.4463h1.9483a1.8352,1.8352,0,0,0,.1386.7207,1.5392,1.5392,0,0,0,.3956.5625,1.8318,1.8318,0,0,0,.6152.3633,2.3511,2.3511,0,0,0,.8076.13,2.0726,2.0726,0,0,0,1.4629-.4932,1.8521,1.8521,0,0,0,.5342-1.4307,2.2817,2.2817,0,0,0-.1553-.8838,1.5655,1.5655,0,0,0-.4443-.6123,1.855,1.855,0,0,0-.6973-.3545,3.4126,3.4126,0,0,0-.9209-.1142h-1.166Z"/><path d="M68.041,13.3818h-6.53V11.8086h6.53Z"/><path d="M78.7285,14.1563a4.7639,4.7639,0,0,1-.4072,1.5615,3.8355,3.8355,0,0,1-.8643,1.207,3.79,3.79,0,0,1-1.2675.7744,4.6185,4.6185,0,0,1-1.627.2725,4.0377,4.0377,0,0,1-1.8906-.42,3.9152,3.9152,0,0,1-1.3457-1.1368,5.0152,5.0152,0,0,1-.8067-1.68,7.7823,7.7823,0,0,1-.2773-2.0547V11.0586a7.5944,7.5944,0,0,1,.2851-2.05,5.1264,5.1264,0,0,1,.8194-1.6875,3.94,3.94,0,0,1,1.35-1.1416,4.0022,4.0022,0,0,1,1.875-.42,4.7087,4.7087,0,0,1,1.6709.2773,3.62,3.62,0,0,1,1.2558.7822,3.7178,3.7178,0,0,1,.8311,1.2315,5.4694,5.4694,0,0,1,.3994,1.6142h-1.956a3.9975,3.9975,0,0,0-.2-.95,2.2834,2.2834,0,0,0-.4112-.7334,1.7046,1.7046,0,0,0-.6562-.4687,2.4283,2.4283,0,0,0-.9336-.1631,1.9428,1.9428,0,0,0-1.1094.3018,2.27,2.27,0,0,0-.7256.8105,3.8432,3.8432,0,0,0-.3945,1.1787,8.01,8.01,0,0,0-.1182,1.4014v1.6387a8.2826,8.2826,0,0,0,.1182,1.4394,3.92,3.92,0,0,0,.3867,1.1778,2.1318,2.1318,0,0,0,.7178.7988,1.9912,1.9912,0,0,0,1.1162.2939,2.0234,2.0234,0,0,0,1.5654-.583,2.7207,2.7207,0,0,0,.6358-1.6513Z"/><path d="M82.8789,16.2031h5.6572v1.5977H80.9219V5.9307h1.957Z"/><path d="M96.5088,15.0449H92.8l-.8154,2.7559H89.9629l3.8555-11.87h1.7207l3.7822,11.87H97.3076ZM93.2969,13.374H96.02L94.6748,8.7188Z"/><path d="M108.4922,5.9307,108.51,13.88a4.8293,4.8293,0,0,1-.293,1.667,3.8083,3.8083,0,0,1-.7988,1.292,3.513,3.513,0,0,1-1.2442.831,4.3326,4.3326,0,0,1-1.6347.294,4.1714,4.1714,0,0,1-1.5977-.294,3.5288,3.5288,0,0,1-1.2305-.8271,3.7209,3.7209,0,0,1-.7988-1.2881,4.8025,4.8025,0,0,1-.2939-1.6748l.0166-7.9492h1.9238l.0166,7.9492a3.8221,3.8221,0,0,0,.1377,1.0019,2.442,2.442,0,0,0,.375.7871,1.7105,1.7105,0,0,0,.6074.5137,1.851,1.851,0,0,0,.8438.1836,1.95,1.95,0,0,0,.8652-.1836,1.758,1.758,0,0,0,.627-.5137,2.3221,2.3221,0,0,0,.3828-.7871,3.8171,3.8171,0,0,0,.1386-1.0019l.0157-7.9492Z"/><path d="M116.9551,14.7432a1.5415,1.5415,0,0,0-.1748-.7452,1.7858,1.7858,0,0,0-.4981-.5673,3.41,3.41,0,0,0-.7656-.4278,10.2406,10.2406,0,0,0-.9668-.3379,10.9683,10.9683,0,0,1-1.3818-.5058,5.361,5.361,0,0,1-1.2149-.7373,3.6018,3.6018,0,0,1-.8633-1.02,2.6824,2.6824,0,0,1-.331-1.3486,2.8231,2.8231,0,0,1,.331-1.374,3.2156,3.2156,0,0,1,.8838-1.0313,4.1254,4.1254,0,0,1,1.2881-.6523,5.1272,5.1272,0,0,1,1.5332-.2285,4.7465,4.7465,0,0,1,1.6016.2656,4.0931,4.0931,0,0,1,1.3047.7412,3.5406,3.5406,0,0,1,.8847,1.1416,3.3891,3.3891,0,0,1,.334,1.4717h-1.957a2.8537,2.8537,0,0,0-.1914-.8193,1.8974,1.8974,0,0,0-.4238-.6407,1.8688,1.8688,0,0,0-.6641-.415,2.5714,2.5714,0,0,0-.9053-.1475,2.7885,2.7885,0,0,0-.8154.1143,1.8868,1.8868,0,0,0-.6475.335,1.58,1.58,0,0,0-.4287.5293,1.5581,1.5581,0,0,0-.1543.7011,1.2332,1.2332,0,0,0,.2119.7217,2.0413,2.0413,0,0,0,.5537.5342,3.8776,3.8776,0,0,0,.7872.3955q.4438.1669.9257.3057a9.7075,9.7075,0,0,1,1.418.5419,5.1148,5.1148,0,0,1,1.19.7745,3.478,3.478,0,0,1,.8155,1.0478,2.9694,2.9694,0,0,1,.3017,1.3613,2.8274,2.8274,0,0,1-.3349,1.3936,3.0676,3.0676,0,0,1-.8965,1.0107,4.0557,4.0557,0,0,1-1.3047.6162,5.7062,5.7062,0,0,1-1.5488.2081,5.62,5.62,0,0,1-1.084-.1065,5.1272,5.1272,0,0,1-1.0313-.3174,4.578,4.578,0,0,1-.917-.5263,3.636,3.636,0,0,1-.7382-.7256,3.35,3.35,0,0,1-.4932-.9209,3.5281,3.5281,0,0,1-.1875-1.1211h1.9648a2.5742,2.5742,0,0,0,.2364.9375,1.9434,1.9434,0,0,0,.5214.664,2.23,2.23,0,0,0,.7627.3995,3.2629,3.2629,0,0,0,.9659.1347,3.086,3.086,0,0,0,.8232-.1054,2.0656,2.0656,0,0,0,.669-.3145,1.4981,1.4981,0,0,0,.4482-.5137A1.458,1.458,0,0,0,116.9551,14.7432Z"/><path d="M127.7656,12.4775h-4.8838v3.7256h5.7149v1.5977h-7.68V5.9307h7.623V7.5449h-5.6582v3.3506h4.8838Z"/><path d="M127,2H12a10,10,0,0,0,0,20H127a10,10,0,0,0,0-20Zm0,18H12A8,8,0,0,1,12,4H127a8,8,0,0,1,0,16Z"/></svg>