<svg id="print" xmlns="http://www.w3.org/2000/svg" viewBox="0 0 99 24"><title>license</title><path d="M17.5918,12.4775H12.709v3.7256h5.7148v1.5977h-7.68V5.9307h7.6221V7.5449H12.709v3.3506h4.8828Z"/><path d="M28.3779,5.9307l.0157,7.9492a4.7851,4.7851,0,0,1-.293,1.667,3.7928,3.7928,0,0,1-.7988,1.292,3.501,3.501,0,0,1-1.2432.831,4.3332,4.3332,0,0,1-1.6348.294,4.1677,4.1677,0,0,1-1.5976-.294,3.542,3.542,0,0,1-1.2315-.8271,3.7478,3.7478,0,0,1-.7988-1.2881A4.8257,4.8257,0,0,1,20.502,13.88l.0166-7.9492h1.9238L22.459,13.88a3.855,3.855,0,0,0,.1387,1.0019,2.4215,2.4215,0,0,0,.375.7871,1.7011,1.7011,0,0,0,.6074.5137,1.8447,1.8447,0,0,0,.8437.1836,1.946,1.946,0,0,0,.8643-.1836,1.7516,1.7516,0,0,0,.6279-.5137,2.337,2.337,0,0,0,.3828-.7871,3.8635,3.8635,0,0,0,.1387-1.0019l.0166-7.9492Z"/><path d="M32.7793,13.252v4.5488H30.8232V5.9307h3.97a5.211,5.211,0,0,1,1.6435.2656,3.8192,3.8192,0,0,1,1.3.7334,3.3119,3.3119,0,0,1,.8516,1.1572,3.7111,3.7111,0,0,1,.3057,1.5371,3.5593,3.5593,0,0,1-.3057,1.5,3.3071,3.3071,0,0,1-.8516,1.1416,3.8358,3.8358,0,0,1-1.3.7256,5.328,5.328,0,0,1-1.6435.2608Zm0-1.5821H34.793a2.4533,2.4533,0,0,0,.8886-.15,1.9537,1.9537,0,0,0,.669-.42,1.8023,1.8023,0,0,0,.4238-.6445,2.2183,2.2183,0,0,0,.1465-.8145,2.4211,2.4211,0,0,0-.1465-.8564,1.86,1.86,0,0,0-1.0928-1.1084,2.4927,2.4927,0,0,0-.8886-.1631H32.7793Z"/><path d="M42.84,16.2031H48.498v1.5977H40.8838V5.9307H42.84Z"/><path d="M58.0605,13.3818H51.53V11.8086h6.53Z"/><path d="M66.0576,17.8008H64.0938V8.3359L61.0605,9.4443V7.7324l4.875-1.8017h.1221Z"/><path d="M73.24,16.6348a1.5353,1.5353,0,0,1,.0938-.5381,1.23,1.23,0,0,1,.2724-.4356,1.2775,1.2775,0,0,1,.4444-.29,1.8013,1.8013,0,0,1,1.2148,0,1.3125,1.3125,0,0,1,.4483.29,1.1884,1.1884,0,0,1,.2773.4356,1.5353,1.5353,0,0,1,.0938.5381,1.4367,1.4367,0,0,1-.0938.5263,1.1777,1.1777,0,0,1-.2773.42,1.3088,1.3088,0,0,1-.4483.2812,1.8664,1.8664,0,0,1-1.2148,0,1.2736,1.2736,0,0,1-.4444-.2812,1.2192,1.2192,0,0,1-.2724-.42A1.4367,1.4367,0,0,1,73.24,16.6348Z"/><path d="M86.0957,17.8008H84.1318V8.3359L81.1,9.4443V7.7324l4.875-1.8017h.1211Z"/><path d="M87,2H12a10,10,0,0,0,0,20H87A10,10,0,0,0,87,2Zm0,18H12A8,8,0,0,1,12,4H87a8,8,0,0,1,0,16Z"/></svg>