<svg id="print" xmlns="http://www.w3.org/2000/svg" viewBox="0 0 119 24"><title>license</title><path d="M16.374,15.0449h-3.71L11.85,17.8008H9.8271l3.8565-11.87h1.72l3.7832,11.87H17.1729ZM13.1621,13.374h2.7227L14.54,8.7188Z"/><path d="M22.7412,13.252v4.5488h-1.957V5.9307h3.9707a5.21,5.21,0,0,1,1.6426.2656,3.815,3.815,0,0,1,1.3007.7334A3.3368,3.3368,0,0,1,28.55,8.0869a3.7111,3.7111,0,0,1,.3057,1.5371,3.5593,3.5593,0,0,1-.3057,1.5,3.3323,3.3323,0,0,1-.8516,1.1416,3.8315,3.8315,0,0,1-1.3007.7256,5.3271,5.3271,0,0,1-1.6426.2608Zm0-1.5821h2.0137a2.458,2.458,0,0,0,.8887-.15,1.9488,1.9488,0,0,0,.6679-.42,1.7908,1.7908,0,0,0,.4239-.6445,2.2,2.2,0,0,0,.1474-.8145,2.4012,2.4012,0,0,0-.1474-.8564,1.8794,1.8794,0,0,0-.4239-.6729,1.899,1.899,0,0,0-.6679-.4355,2.4979,2.4979,0,0,0-.8887-.1631H22.7412Z"/><path d="M36.4121,15.0449h-3.709l-.8154,2.7559H29.8662l3.8555-11.87h1.7207l3.7822,11.87H37.2109ZM33.2,13.374h2.7227L34.5781,8.7188Z"/><path d="M48.69,14.1563a4.7645,4.7645,0,0,1-.4082,1.5615A3.728,3.728,0,0,1,46.15,17.6992a4.616,4.616,0,0,1-1.626.2725,4.0422,4.0422,0,0,1-1.8916-.42,3.9035,3.9035,0,0,1-1.3447-1.1368,5.0167,5.0167,0,0,1-.8076-1.68,7.8658,7.8658,0,0,1-.2774-2.0547V11.0586a7.59,7.59,0,0,1,.2862-2.05,5.1048,5.1048,0,0,1,.8193-1.6875A3.9362,3.9362,0,0,1,42.6572,6.18a4.0022,4.0022,0,0,1,1.875-.42,4.7144,4.7144,0,0,1,1.6719.2773,3.6164,3.6164,0,0,1,1.2549.7822,3.7351,3.7351,0,0,1,.832,1.2315A5.5257,5.5257,0,0,1,48.69,9.665h-1.957a3.95,3.95,0,0,0-.1992-.95,2.2869,2.2869,0,0,0-.4121-.7334,1.6908,1.6908,0,0,0-.6563-.4687,2.4248,2.4248,0,0,0-.9336-.1631,1.94,1.94,0,0,0-1.1084.3018,2.2611,2.2611,0,0,0-.7256.8105,3.8705,3.8705,0,0,0-.3955,1.1787,8.0105,8.0105,0,0,0-.1181,1.4014v1.6387a8.2829,8.2829,0,0,0,.1181,1.4394,3.9482,3.9482,0,0,0,.3877,1.1778,2.1211,2.1211,0,0,0,.7168.7988,1.9926,1.9926,0,0,0,1.1172.2939,2.0261,2.0261,0,0,0,1.5654-.583,2.7323,2.7323,0,0,0,.6358-1.6513Z"/><path d="M58.3828,17.8008H56.4756V12.502H52.44v5.2988h-1.9V5.9307h1.9v4.9648h4.0352V5.9307h1.9072Z"/><path d="M67.6689,12.4775H62.7861v3.7256H68.501v1.5977h-7.68V5.9307h7.6221V7.5449H62.7861v3.3506h4.8828Z"/><path d="M78.0791,13.3818h-6.53V11.8086h6.53Z"/><path d="M88.3682,17.8008H80.3945V16.4561l3.8643-4.2149q.4893-.5463.8193-.9668a5.9252,5.9252,0,0,0,.5264-.7705,2.952,2.952,0,0,0,.2773-.6514,2.3621,2.3621,0,0,0,.0811-.6113,2.1948,2.1948,0,0,0-.126-.7549,1.7371,1.7371,0,0,0-.3594-.5947,1.6063,1.6063,0,0,0-.5625-.3877,1.8966,1.8966,0,0,0-.7373-.1387,1.9578,1.9578,0,0,0-1.5615.5791,2.3622,2.3622,0,0,0-.501,1.5977h-1.957A3.8333,3.8333,0,0,1,80.44,8.0791a3.52,3.52,0,0,1,.8076-1.2021,3.8048,3.8048,0,0,1,1.2754-.8116,4.95,4.95,0,0,1,3.2529-.0449,3.2951,3.2951,0,0,1,1.1572.7051A2.9792,2.9792,0,0,1,87.65,7.7979a3.6762,3.6762,0,0,1,.2451,1.3613,3.2628,3.2628,0,0,1-.18,1.0722,5.24,5.24,0,0,1-.497,1.0313,8.509,8.509,0,0,1-.7588,1.0312q-.4395.5172-.9532,1.0635l-2.69,2.8867h5.5518Z"/><path d="M93.2588,16.6348a1.5353,1.5353,0,0,1,.0937-.5381,1.2184,1.2184,0,0,1,.2735-.4356,1.2679,1.2679,0,0,1,.4443-.29,1.8015,1.8015,0,0,1,1.2149,0,1.3316,1.3316,0,0,1,.4482.29,1.1981,1.1981,0,0,1,.2764.4356,1.5358,1.5358,0,0,1,.0947.5381,1.4369,1.4369,0,0,1-.0947.5263,1.1875,1.1875,0,0,1-.2764.42,1.3277,1.3277,0,0,1-.4482.2812,1.8667,1.8667,0,0,1-1.2149,0,1.264,1.264,0,0,1-.4443-.2812,1.2077,1.2077,0,0,1-.2735-.42A1.4366,1.4366,0,0,1,93.2588,16.6348Z"/><path d="M108.4629,13.2842a7.0145,7.0145,0,0,1-.2647,2.0263,4.0845,4.0845,0,0,1-.7617,1.4668,3.1652,3.1652,0,0,1-1.2148.8926,4.4471,4.4471,0,0,1-3.2207,0,3.1861,3.1861,0,0,1-1.2188-.8926,4.1351,4.1351,0,0,1-.7744-1.4668,6.8385,6.8385,0,0,1-.2734-2.0263V10.4473a6.8971,6.8971,0,0,1,.27-2.0254,4.0953,4.0953,0,0,1,.77-1.4678,3.2066,3.2066,0,0,1,1.2149-.8926,4.0721,4.0721,0,0,1,1.6015-.3017,4.13,4.13,0,0,1,1.6143.3017,3.1972,3.1972,0,0,1,1.2187.8926,4.0953,4.0953,0,0,1,.77,1.4678,6.8986,6.8986,0,0,1,.2686,2.0254Zm-5.7715-.7422L106.49,9.7139a3.12,3.12,0,0,0-.5341-1.7979,1.6486,1.6486,0,0,0-1.3653-.583,1.6247,1.6247,0,0,0-1.4267.6768,3.6609,3.6609,0,0,0-.4727,2.0791Zm3.8154-1.2959-3.7988,2.8291q.1466,2.332,1.8994,2.3311,1.8984,0,1.8994-2.7793Z"/><path d="M107,2H12a10,10,0,0,0,0,20h95a10,10,0,0,0,0-20Zm0,18H12A8,8,0,0,1,12,4h95a8,8,0,0,1,0,16Z"/></svg>